Monda-Bold.ufo
<glyph name="exclam" format="1">
  <advance width="730.0"/>
  <unicode hex="0021"/>
  <outline>
    <contour>
      <point x="224.0" y="0.0" type="line"/>
      <point x="493.0" y="0.0" type="line"/>
      <point x="493.0" y="262.0" type="line"/>
      <point x="224.0" y="262.0" type="line"/>
    </contour>
    <contour>
      <point x="199.0" y="1490.0" type="curve"/>
      <point x="531.0" y="1490.0" type="line"/>
      <point x="531.0" y="1104.0"/>
      <point x="489.0" y="926"/>
      <point x="411.0" y="403" type="curve"/>
      <point x="319.0" y="403" type="line"/>
      <point x="241.0" y="926"/>
      <point x="199.0" y="1104.0"/>
    </contour>
  </outline>
</glyph>
<glyph name="numbersign" format="1">
  <advance width="1509"/>
  <unicode hex="0023"/>
  <outline>
    <contour>
      <point x="52" y="490" type="line"/>
      <point x="52" y="639" type="line"/>
      <point x="1394" y="639" type="line"/>
      <point x="1394" y="490" type="line"/>
    </contour>
    <contour>
      <point x="95" y="931" type="line"/>
      <point x="95" y="1080" type="line"/>
      <point x="1437" y="1080" type="line"/>
      <point x="1437" y="931" type="line"/>
    </contour>
    <contour>
      <point x="923.0" y="-1.0" type="line"/>
      <point x="705" y="-1" type="line"/>
      <point x="969" y="1446" type="line"/>
      <point x="1179.0" y="1446.0" type="line"/>
    </contour>
    <contour>
      <point x="469" y="-1" type="line"/>
      <point x="251" y="-1" type="line"/>
      <point x="515" y="1446" type="line"/>
      <point x="725" y="1446" type="line"/>
    </contour>
  </outline>
</glyph>
<glyph name="percent" format="1">
  <advance width="1981"/>
  <unicode hex="0025"/>
  <outline>
    <contour>
      <point x="78" y="1072" type="line" smooth="yes"/>
      <point x="78" y="826"/>
      <point x="159" y="649"/>
      <point x="396" y="649" type="curve" smooth="yes"/>
      <point x="633" y="649"/>
      <point x="717" y="826"/>
      <point x="717" y="1072" type="curve" smooth="yes"/>
      <point x="717" y="1078" type="line" smooth="yes"/>
      <point x="715" y="1328"/>
      <point x="633" y="1490"/>
      <point x="396" y="1490" type="curve" smooth="yes"/>
      <point x="157" y="1490"/>
      <point x="79" y="1328"/>
      <point x="78" y="1077" type="curve"/>
    </contour>
    <contour>
      <point x="298" y="1081" type="line" smooth="yes"/>
      <point x="298" y="1222"/>
      <point x="305" y="1317"/>
      <point x="396" y="1317" type="curve" smooth="yes"/>
      <point x="488" y="1317"/>
      <point x="494" y="1221"/>
      <point x="494" y="1079" type="curve" smooth="yes"/>
      <point x="494" y="1072" type="line" smooth="yes"/>
      <point x="494" y="930"/>
      <point x="485" y="821"/>
      <point x="396" y="821" type="curve" smooth="yes"/>
      <point x="307" y="821"/>
      <point x="298" y="930"/>
      <point x="298" y="1072" type="curve" smooth="yes"/>
    </contour>
    <contour>
      <point x="968" y="423" type="line" smooth="yes"/>
      <point x="968" y="177"/>
      <point x="1050" y="0"/>
      <point x="1366" y="0" type="curve" smooth="yes"/>
      <point x="1681" y="0"/>
      <point x="1764" y="177"/>
      <point x="1528" y="423" type="curve"/>
      <point x="1528" y="430" type="line" smooth="yes"/>
      <point x="1526" y="680"/>
      <point x="1445" y="841"/>
      <point x="1247" y="841" type="curve" smooth="yes"/>
      <point x="1049" y="841"/>
      <point x="970" y="679"/>
      <point x="968" y="430" type="curve"/>
    </contour>
    <contour>
      <point x="1188" y="428" type="line" smooth="yes"/>
      <point x="1188" y="571"/>
      <point x="1192" y="668"/>
      <point x="1247" y="668" type="curve" smooth="yes"/>
      <point x="1302" y="668"/>
      <point x="1305" y="570"/>
      <point x="1305" y="427" type="curve" smooth="yes"/>
      <point x="1305" y="423" type="line"/>
      <point x="1541" y="281"/>
      <point x="1527" y="172"/>
      <point x="1366" y="172" type="curve" smooth="yes"/>
      <point x="1205" y="172"/>
      <point x="1188" y="281"/>
      <point x="1188" y="423" type="curve" smooth="yes"/>
    </contour>
    <contour>
      <point x="288" y="0" type="line"/>
      <point x="436" y="0" type="line"/>
      <point x="1151" y="1518" type="line"/>
      <point x="1002" y="1518" type="line"/>
    </contour>
  </outline>
</glyph>
<glyph name="ampersand" format="1">
  <advance width="1295"/>
  <unicode hex="0026"/>
  <outline>
    <contour>
      <point x="429" y="-25" type="curve" smooth="yes"/>
      <point x="623" y="-25"/>
      <point x="804" y="19"/>
      <point x="934" y="100" type="curve"/>
      <point x="1025" y="44"/>
      <point x="1106" y="-24"/>
      <point x="1192" y="-24" type="curve" smooth="yes"/>
      <point x="1209" y="-24"/>
      <point x="1225" y="-22"/>
      <point x="1242" y="-19" type="curve"/>
      <point x="1242" y="217" type="line"/>
      <point x="1193" y="221"/>
      <point x="1142" y="246"/>
      <point x="1110" y="283" type="curve"/>
      <point x="1197" y="410"/>
      <point x="1234" y="514"/>
      <point x="1234" y="723" type="curve"/>
      <point x="1005" y="723" type="line"/>
      <point x="1005" y="640"/>
      <point x="998" y="545"/>
      <point x="944" y="467" type="curve"/>
      <point x="666" y="725" type="line"/>
      <point x="901" y="859"/>
      <point x="1048" y="1007"/>
      <point x="1048" y="1201" type="curve" smooth="yes"/>
      <point x="1048" y="1396"/>
      <point x="841" y="1518"/>
      <point x="495" y="1518" type="curve" smooth="yes"/>
      <point x="220" y="1518"/>
      <point x="111" y="1370"/>
      <point x="111" y="1187" type="curve" smooth="yes"/>
      <point x="111" y="1063"/>
      <point x="193" y="860"/>
      <point x="243" y="750" type="curve"/>
      <point x="132" y="627"/>
      <point x="55" y="490"/>
      <point x="55" y="322" type="curve" smooth="yes"/>
      <point x="55" y="128"/>
      <point x="170" y="-25"/>
    </contour>
    <contour>
      <point x="441" y="183" type="curve" smooth="yes"/>
      <point x="347" y="183"/>
      <point x="313" y="262"/>
      <point x="313" y="343" type="curve" smooth="yes"/>
      <point x="313" y="420"/>
      <point x="342" y="499"/>
      <point x="381" y="520" type="curve"/>
      <point x="461" y="431"/>
      <point x="557" y="344"/>
      <point x="652" y="259" type="curve"/>
      <point x="600" y="222"/>
      <point x="532" y="183"/>
    </contour>
    <contour>
      <point x="505" y="914" type="curve"/>
      <point x="447" y="993"/>
      <point x="399" y="1100"/>
      <point x="399" y="1186" type="curve" smooth="yes"/>
      <point x="399" y="1233"/>
      <point x="414" y="1310"/>
      <point x="527" y="1310" type="curve" smooth="yes"/>
      <point x="642" y="1310"/>
      <point x="672" y="1239"/>
      <point x="672" y="1188" type="curve" smooth="yes"/>
      <point x="672" y="1095"/>
      <point x="599" y="989"/>
    </contour>
  </outline>
</glyph>
<glyph name="parenleft" format="1">
  <advance width="575"/>
  <unicode hex="0028"/>
  <outline>
    <contour>
      <point x="527" y="-53" type="curve"/>
      <point x="527" y="131" type="line"/>
      <point x="328" y="128"/>
      <point x="367" y="649"/>
      <point x="367" y="762" type="curve" smooth="yes"/>
      <point x="367" y="876"/>
      <point x="328" y="1397"/>
      <point x="527" y="1394" type="curve"/>
      <point x="527" y="1578" type="line"/>
      <point x="117" y="1580"/>
      <point x="129" y="1055"/>
      <point x="129" y="762" type="curve" smooth="yes"/>
      <point x="129" y="470"/>
      <point x="117" y="-55"/>
    </contour>
  </outline>
</glyph>
<glyph name="plus" format="1">
  <advance width="942"/>
  <unicode hex="002B"/>
  <outline>
    <contour>
      <point x="547.0" y="968.0" type="line"/>
      <point x="547.0" y="642.0" type="line"/>
      <point x="822.0" y="642.0" type="line"/>
      <point x="822.0" y="494.0" type="line"/>
      <point x="547.0" y="494.0" type="line"/>
      <point x="547.0" y="156.0" type="line"/>
      <point x="396.0" y="156.0" type="line"/>
      <point x="396.0" y="494.0" type="line"/>
      <point x="120.0" y="494.0" type="line"/>
      <point x="120.0" y="642.0" type="line"/>
      <point x="396.0" y="642.0" type="line"/>
      <point x="396.0" y="968.0" type="line"/>
    </contour>
  </outline>
</glyph>
<glyph name="comma" format="1">
  <advance width="619"/>
  <unicode hex="002C"/>
  <outline>
    <contour>
      <point x="168" y="294" type="line"/>
      <point x="168" y="0" type="line"/>
      <point x="323" y="0" type="line"/>
      <point x="323" y="-145"/>
      <point x="220" y="-253"/>
      <point x="175" y="-292" type="curve"/>
      <point x="268" y="-370" type="line"/>
      <point x="389" y="-263"/>
      <point x="495" y="-125"/>
      <point x="495" y="84" type="curve" smooth="yes"/>
      <point x="495" y="294" type="line"/>
    </contour>
  </outline>
</glyph>
<glyph name="hyphen" format="1">
  <advance width="354"/>
  <unicode hex="002D"/>
  <outline>
    <contour>
      <point x="3" y="375" type="line"/>
      <point x="348" y="375" type="line"/>
      <point x="348" y="559" type="line"/>
      <point x="3" y="559" type="line"/>
    </contour>
  </outline>
</glyph>
<glyph name="one" format="1">
  <advance width="1102"/>
  <unicode hex="0031"/>
  <outline>
    <contour>
      <point x="1044" y="0" type="line"/>
      <point x="136" y="0" type="line"/>
      <point x="136" y="233" type="line"/>
      <point x="1044" y="233" type="line"/>
    </contour>
    <contour>
      <point x="786" y="0" type="line"/>
      <point x="447" y="0" type="line"/>
      <point x="447" y="1225" type="line"/>
      <point x="135" y="1183" type="line"/>
      <point x="106" y="1408" type="line"/>
      <point x="564" y="1490" type="line"/>
      <point x="786" y="1490" type="line"/>
    </contour>
  </outline>
</glyph>
<glyph name="three" format="1">
  <advance width="1083"/>
  <unicode hex="0033"/>
  <outline>
    <contour>
      <point x="60" y="482" type="line"/>
      <point x="60" y="431" type="line" smooth="yes"/>
      <point x="64" y="169"/>
      <point x="148" y="-29"/>
      <point x="549" y="-29" type="curve" smooth="yes"/>
      <point x="931" y="-29"/>
      <point x="1038" y="172"/>
      <point x="1038" y="439" type="curve" smooth="yes"/>
      <point x="1038" y="571"/>
      <point x="999" y="713"/>
      <point x="887" y="795" type="curve"/>
      <point x="990" y="860"/>
      <point x="1038" y="989"/>
      <point x="1038" y="1106" type="curve" smooth="yes"/>
      <point x="1038" y="1358"/>
      <point x="895" y="1519"/>
      <point x="549" y="1519" type="curve" smooth="yes"/>
      <point x="201" y="1519"/>
      <point x="59" y="1360"/>
      <point x="59" y="1106" type="curve" smooth="yes"/>
      <point x="59" y="1012" type="line"/>
      <point x="348" y="1012" type="line"/>
      <point x="348" y="1095"/>
      <point x="340" y="1267"/>
      <point x="549" y="1267" type="curve" smooth="yes"/>
      <point x="723" y="1267"/>
      <point x="748" y="1183"/>
      <point x="748" y="1106" type="curve" smooth="yes"/>
      <point x="748" y="965"/>
      <point x="605" y="940"/>
      <point x="380" y="943" type="curve"/>
      <point x="380" y="653" type="line"/>
      <point x="632" y="656"/>
      <point x="748" y="573"/>
      <point x="748" y="439" type="curve" smooth="yes"/>
      <point x="748" y="360"/>
      <point x="750" y="224"/>
      <point x="549" y="224" type="curve" smooth="yes"/>
      <point x="339" y="224"/>
      <point x="348" y="399"/>
      <point x="348" y="482" type="curve"/>
    </contour>
  </outline>
</glyph>
<glyph name="four" format="1">
  <advance width="1425"/>
  <unicode hex="0034"/>
  <outline>
    <contour>
      <point x="93" y="313" type="line"/>
      <point x="759" y="313" type="line"/>
      <point x="759" y="0" type="line"/>
      <point x="1127" y="0" type="line"/>
      <point x="1127" y="313" type="line"/>
      <point x="1373" y="313" type="line"/>
      <point x="1373" y="593" type="line"/>
      <point x="1127" y="593" type="line"/>
      <point x="1127" y="1490" type="line"/>
      <point x="701" y="1490" type="line"/>
      <point x="93" y="585" type="line"/>
    </contour>
    <contour>
      <point x="402" y="593" type="line"/>
      <point x="759" y="1156" type="line"/>
      <point x="759" y="593" type="line"/>
    </contour>
  </outline>
</glyph>
<glyph name="five" format="1">
  <advance width="1099"/>
  <unicode hex="0035"/>
  <outline>
    <contour>
      <point x="79" y="473" type="line"/>
      <point x="79" y="201"/>
      <point x="157" y="-29"/>
      <point x="556" y="-29" type="curve" smooth="yes"/>
      <point x="981" y="-29"/>
      <point x="1045" y="256"/>
      <point x="1045" y="530" type="curve" smooth="yes"/>
      <point x="1045" y="763"/>
      <point x="975" y="987"/>
      <point x="649" y="987" type="curve" smooth="yes"/>
      <point x="551" y="987"/>
      <point x="474" y="967"/>
      <point x="389" y="938" type="curve"/>
      <point x="389" y="1207" type="line"/>
      <point x="997" y="1207" type="line"/>
      <point x="997" y="1490" type="line"/>
      <point x="110" y="1490" type="line"/>
      <point x="110" y="635" type="line"/>
      <point x="354" y="635" type="line"/>
      <point x="380" y="684"/>
      <point x="454" y="751"/>
      <point x="563" y="751" type="curve" smooth="yes"/>
      <point x="755" y="751"/>
      <point x="764" y="611"/>
      <point x="764" y="534" type="curve" smooth="yes"/>
      <point x="764" y="436"/>
      <point x="777" y="215"/>
      <point x="532" y="215" type="curve" smooth="yes"/>
      <point x="371" y="215"/>
      <point x="363" y="332"/>
      <point x="365" y="473" type="curve"/>
    </contour>
  </outline>
</glyph>
<glyph name="six" format="1">
  <advance width="1316"/>
  <unicode hex="0036"/>
  <outline>
    <contour>
      <point x="662" y="-24" type="curve" smooth="yes"/>
      <point x="1060" y="-24"/>
      <point x="1222" y="124"/>
      <point x="1222" y="456" type="curve" smooth="yes"/>
      <point x="1222" y="797"/>
      <point x="1047" y="912"/>
      <point x="713" y="912" type="curve" smooth="yes"/>
      <point x="689" y="912"/>
      <point x="625" y="909"/>
      <point x="582" y="895" type="curve"/>
      <point x="989" y="1489" type="line"/>
      <point x="592" y="1489" type="line"/>
      <point x="343" y="1113" type="line" smooth="yes"/>
      <point x="234" y="948"/>
      <point x="100" y="745"/>
      <point x="100" y="490" type="curve" smooth="yes"/>
      <point x="100" y="168"/>
      <point x="245" y="-24"/>
    </contour>
    <contour>
      <point x="663" y="215" type="curve" smooth="yes"/>
      <point x="495" y="215"/>
      <point x="440" y="290"/>
      <point x="440" y="467" type="curve" smooth="yes"/>
      <point x="440" y="635"/>
      <point x="500" y="685"/>
      <point x="663" y="685" type="curve" smooth="yes"/>
      <point x="840" y="685"/>
      <point x="894" y="625"/>
      <point x="894" y="465" type="curve" smooth="yes"/>
      <point x="894" y="292"/>
      <point x="839" y="215"/>
    </contour>
  </outline>
</glyph>
<glyph name="nine" format="1">
  <advance width="1310"/>
  <unicode hex="0039"/>
  <outline>
    <contour>
      <point x="421" y="0" type="line"/>
      <point x="794" y="0" type="line"/>
      <point x="978" y="342" type="line" smooth="yes"/>
      <point x="1072" y="517"/>
      <point x="1207" y="710"/>
      <point x="1207" y="1019" type="curve" smooth="yes"/>
      <point x="1207" y="1043" type="line" smooth="yes"/>
      <point x="1207" y="1386"/>
      <point x="1064" y="1527"/>
      <point x="659" y="1527" type="curve" smooth="yes"/>
      <point x="261" y="1527"/>
      <point x="94" y="1405"/>
      <point x="94" y="1053" type="curve" smooth="yes"/>
      <point x="94" y="682"/>
      <point x="265" y="570"/>
      <point x="587" y="570" type="curve" smooth="yes"/>
      <point x="603" y="570"/>
      <point x="694" y="575"/>
      <point x="727" y="582" type="curve"/>
    </contour>
    <contour>
      <point x="658" y="815" type="curve" smooth="yes"/>
      <point x="461" y="815"/>
      <point x="422" y="883"/>
      <point x="422" y="1053" type="curve" smooth="yes"/>
      <point x="422" y="1226"/>
      <point x="465" y="1291"/>
      <point x="654" y="1291" type="curve" smooth="yes"/>
      <point x="832" y="1291"/>
      <point x="867" y="1234"/>
      <point x="867" y="1057" type="curve" smooth="yes"/>
      <point x="867" y="879"/>
      <point x="831" y="815"/>
    </contour>
  </outline>
</glyph>
<glyph name="question" format="1">
  <advance width="1191"/>
  <unicode hex="003F"/>
  <outline>
    <contour>
      <point x="513" y="296" type="curve"/>
      <point x="813" y="564" type="line" smooth="yes"/>
      <point x="992" y="724"/>
      <point x="1142" y="894"/>
      <point x="1142" y="1108" type="curve" smooth="yes"/>
      <point x="1142" y="1357"/>
      <point x="1002" y="1518"/>
      <point x="593" y="1518" type="curve" smooth="yes"/>
      <point x="148" y="1518"/>
      <point x="50" y="1359"/>
      <point x="50" y="1056" type="curve" smooth="yes"/>
      <point x="50" y="962" type="line"/>
      <point x="402" y="962" type="line"/>
      <point x="402" y="1034" type="line" smooth="yes"/>
      <point x="402" y="1179"/>
      <point x="422" y="1267"/>
      <point x="593" y="1267" type="curve" smooth="yes"/>
      <point x="735" y="1267"/>
      <point x="779" y="1213"/>
      <point x="779" y="1093" type="curve" smooth="yes"/>
      <point x="779" y="971"/>
      <point x="702" y="884"/>
      <point x="590" y="774" type="curve" smooth="yes"/>
      <point x="213" y="406" type="line"/>
      <point x="213" y="406"/>
      <point x="513" y="296"/>
    </contour>
  </outline>
</glyph>
<glyph name="A" format="1">
  <advance width="1576"/>
  <unicode hex="0041"/>
  <outline>
    <contour>
      <point x="76" y="0" type="line"/>
      <point x="433" y="0" type="line"/>
      <point x="514" y="280" type="line"/>
      <point x="1056" y="280" type="line"/>
      <point x="1133" y="0" type="line"/>
      <point x="1500" y="0" type="line"/>
      <point x="1030" y="1490" type="line"/>
      <point x="540" y="1490" type="line"/>
    </contour>
    <contour>
      <point x="578" y="503" type="line"/>
      <point x="792" y="1244" type="line"/>
      <point x="995" y="503" type="line"/>
    </contour>
  </outline>
</glyph>
<glyph name="B" format="1">
  <advance width="1353.63774475"/>
  <unicode hex="0042"/>
  <outline>
    <contour>
      <point x="162" y="0" type="line"/>
      <point x="769" y="0" type="line" smooth="yes"/>
      <point x="1141" y="0"/>
      <point x="1271" y="150"/>
      <point x="1260" y="469" type="curve"/>
      <point x="1260" y="666"/>
      <point x="1219" y="776"/>
      <point x="1011" y="817" type="curve"/>
      <point x="1161" y="863"/>
      <point x="1212" y="945"/>
      <point x="1212" y="1105" type="curve" smooth="yes"/>
      <point x="1212" y="1376"/>
      <point x="1106" y="1490"/>
      <point x="687" y="1490" type="curve" smooth="yes"/>
      <point x="162" y="1490" type="line"/>
    </contour>
    <contour>
      <point x="501" y="904" type="line"/>
      <point x="501" y="1264" type="line"/>
      <point x="646" y="1264" type="line" smooth="yes"/>
      <point x="800" y="1264"/>
      <point x="864" y="1253"/>
      <point x="864" y="1102" type="curve" smooth="yes"/>
      <point x="864" y="987"/>
      <point x="865" y="904"/>
      <point x="696" y="904" type="curve" smooth="yes"/>
    </contour>
    <contour>
      <point x="501" y="234" type="line"/>
      <point x="501" y="706" type="line"/>
      <point x="690" y="706" type="line" smooth="yes"/>
      <point x="912" y="706"/>
      <point x="921" y="613"/>
      <point x="921" y="470" type="curve" smooth="yes"/>
      <point x="921" y="298"/>
      <point x="914" y="234"/>
      <point x="680" y="234" type="curve" smooth="yes"/>
    </contour>
  </outline>
</glyph>
<glyph name="C" format="1">
  <advance width="1515"/>
  <unicode hex="0043"/>
  <outline>
    <contour>
      <point x="788" y="-29" type="curve" smooth="yes"/>
      <point x="1321" y="-29"/>
      <point x="1394" y="203"/>
      <point x="1394" y="490" type="curve" smooth="yes"/>
      <point x="1394" y="594" type="line"/>
      <point x="1060" y="594" type="line"/>
      <point x="1060" y="454" type="line" smooth="yes"/>
      <point x="1060" y="276"/>
      <point x="998" y="237"/>
      <point x="788" y="237" type="curve" smooth="yes"/>
      <point x="581" y="237"/>
      <point x="489" y="275"/>
      <point x="489" y="454" type="curve" smooth="yes"/>
      <point x="489" y="1028" type="line" smooth="yes"/>
      <point x="489" y="1206"/>
      <point x="583" y="1252"/>
      <point x="788" y="1252" type="curve" smooth="yes"/>
      <point x="995" y="1252"/>
      <point x="1060" y="1200"/>
      <point x="1060" y="1028" type="curve" smooth="yes"/>
      <point x="1060" y="904" type="line"/>
      <point x="1394" y="904" type="line"/>
      <point x="1394" y="987" type="line" smooth="yes"/>
      <point x="1394" y="1282"/>
      <point x="1319" y="1518"/>
      <point x="788" y="1518" type="curve" smooth="yes"/>
      <point x="240" y="1518"/>
      <point x="150" y="1288"/>
      <point x="150" y="993" type="curve" smooth="yes"/>
      <point x="150" y="483" type="line" smooth="yes"/>
      <point x="150" y="196"/>
      <point x="243" y="-29"/>
    </contour>
  </outline>
</glyph>
<glyph name="D" format="1">
  <advance width="1606"/>
  <unicode hex="0044"/>
  <outline>
    <contour>
      <point x="1081" y="473" type="line" smooth="yes"/>
      <point x="1081" y="355"/>
      <point x="1070" y="266"/>
      <point x="860" y="266" type="curve" smooth="yes"/>
      <point x="561" y="266" type="line"/>
      <point x="561" y="1223" type="line"/>
      <point x="860" y="1223" type="line" smooth="yes"/>
      <point x="1067" y="1223"/>
      <point x="1081" y="1125"/>
      <point x="1081" y="1013" type="curve" smooth="yes"/>
    </contour>
    <contour>
      <point x="889" y="0" type="line" smooth="yes"/>
      <point x="1325" y="0"/>
      <point x="1420" y="232"/>
      <point x="1420" y="519" type="curve" smooth="yes"/>
      <point x="1420" y="962" type="line" smooth="yes"/>
      <point x="1420" y="1257"/>
      <point x="1328" y="1490"/>
      <point x="889" y="1490" type="curve" smooth="yes"/>
      <point x="222" y="1490" type="line"/>
      <point x="222" y="0" type="line"/>
    </contour>
  </outline>
</glyph>
<glyph name="E" format="1">
  <advance width="1306"/>
  <unicode hex="0045"/>
  <outline>
    <contour>
      <point x="186" y="0" type="line"/>
      <point x="1192" y="0" type="line"/>
      <point x="1192" y="261" type="line"/>
      <point x="525" y="261" type="line"/>
      <point x="525" y="636" type="line"/>
      <point x="1107" y="636" type="line"/>
      <point x="1107" y="877" type="line"/>
      <point x="525" y="877" type="line"/>
      <point x="525" y="1228" type="line"/>
      <point x="1181" y="1228" type="line"/>
      <point x="1181" y="1490" type="line"/>
      <point x="186" y="1490" type="line"/>
    </contour>
  </outline>
</glyph>
<glyph name="F" format="1">
  <advance width="1169"/>
  <unicode hex="0046"/>
  <outline>
    <contour>
      <point x="186" y="0" type="line"/>
      <point x="525" y="0" type="line"/>
      <point x="525" y="621" type="line"/>
      <point x="1054" y="621" type="line"/>
      <point x="1054" y="861" type="line"/>
      <point x="525" y="861" type="line"/>
      <point x="525" y="1228" type="line"/>
      <point x="1097" y="1228" type="line"/>
      <point x="1097" y="1490" type="line"/>
      <point x="186" y="1490" type="line"/>
    </contour>
  </outline>
</glyph>
<glyph name="G" format="1">
  <advance width="1640"/>
  <unicode hex="0047"/>
  <outline>
    <contour>
      <point x="1366" y="0" type="line"/>
      <point x="1437" y="0" type="line"/>
      <point x="1437" y="766" type="line"/>
      <point x="889" y="766" type="line"/>
      <point x="889" y="550" type="line"/>
      <point x="1166" y="550" type="line"/>
    </contour>
    <contour>
      <point x="1436" y="904" type="line"/>
      <point x="1436" y="987" type="line" smooth="yes"/>
      <point x="1436" y="1282"/>
      <point x="1355" y="1518"/>
      <point x="824" y="1518" type="curve" smooth="yes"/>
      <point x="276" y="1518"/>
      <point x="186" y="1288"/>
      <point x="186" y="993" type="curve" smooth="yes"/>
      <point x="186" y="483" type="line" smooth="yes"/>
      <point x="186" y="196"/>
      <point x="279" y="-29"/>
      <point x="824" y="-29" type="curve" smooth="yes"/>
      <point x="1357" y="-29"/>
      <point x="1436" y="203"/>
      <point x="1436" y="490" type="curve" smooth="yes"/>
      <point x="1436" y="594" type="line"/>
      <point x="1102" y="594" type="line"/>
      <point x="1102" y="454" type="line" smooth="yes"/>
      <point x="1102" y="276"/>
      <point x="1034" y="237"/>
      <point x="824" y="237" type="curve" smooth="yes"/>
      <point x="617" y="237"/>
      <point x="525" y="275"/>
      <point x="525" y="454" type="curve" smooth="yes"/>
      <point x="525" y="1028" type="line" smooth="yes"/>
      <point x="525" y="1206"/>
      <point x="619" y="1252"/>
      <point x="824" y="1252" type="curve" smooth="yes"/>
      <point x="1031" y="1252"/>
      <point x="1102" y="1200"/>
      <point x="1102" y="1028" type="curve" smooth="yes"/>
      <point x="1102" y="904" type="line"/>
    </contour>
  </outline>
</glyph>
<glyph name="H" format="1">
  <advance width="1663"/>
  <unicode hex="0048"/>
  <outline>
    <contour>
      <point x="222" y="0" type="line"/>
      <point x="561" y="0" type="line"/>
      <point x="561" y="596" type="line"/>
      <point x="1103" y="596" type="line"/>
      <point x="1103" y="0" type="line"/>
      <point x="1441" y="0" type="line"/>
      <point x="1441" y="1490" type="line"/>
      <point x="1103" y="1490" type="line"/>
      <point x="1103" y="866" type="line"/>
      <point x="561" y="866" type="line"/>
      <point x="561" y="1490" type="line"/>
      <point x="222" y="1490" type="line"/>
    </contour>
  </outline>
</glyph>
<glyph name="I" format="1">
  <advance width="1185"/>
  <unicode hex="0049"/>
  <outline>
    <contour>
      <point x="1082" y="0" type="curve"/>
      <point x="1082" y="254" type="line"/>
      <point x="103" y="254" type="line"/>
      <point x="103" y="0" type="line"/>
      <point x="103" y="0"/>
      <point x="1082" y="0"/>
    </contour>
    <contour>
      <point x="1082" y="1236" type="curve"/>
      <point x="1082" y="1490" type="line"/>
      <point x="103" y="1490" type="line"/>
      <point x="103" y="1236" type="line"/>
      <point x="103" y="1236"/>
      <point x="1082" y="1236"/>
    </contour>
    <contour>
      <point x="423" y="0" type="line"/>
      <point x="762" y="0" type="line"/>
      <point x="762" y="1490" type="line"/>
      <point x="423" y="1490" type="line"/>
    </contour>
  </outline>
</glyph>
<glyph name="J" format="1">
  <advance width="1240"/>
  <unicode hex="004A"/>
  <outline>
    <contour>
      <point x="509" y="-39" type="curve" smooth="yes"/>
      <point x="842" y="-39"/>
      <point x="1070" y="130"/>
      <point x="1070" y="418" type="curve" smooth="yes"/>
      <point x="1070" y="1490" type="line"/>
      <point x="304" y="1490" type="line"/>
      <point x="304" y="1236" type="line"/>
      <point x="731" y="1236" type="line"/>
      <point x="731" y="451" type="line" smooth="yes"/>
      <point x="731" y="350"/>
      <point x="668" y="244"/>
      <point x="484" y="244" type="curve" smooth="yes"/>
      <point x="399" y="244"/>
      <point x="288" y="266"/>
      <point x="146" y="323" type="curve"/>
      <point x="69" y="66" type="line"/>
      <point x="227" y="-7"/>
      <point x="376" y="-39"/>
    </contour>
  </outline>
</glyph>
<glyph name="K" format="1">
  <advance width="1520"/>
  <unicode hex="004B"/>
  <outline>
    <contour>
      <point x="222" y="0" type="line"/>
      <point x="561" y="0" type="line"/>
      <point x="561" y="584" type="line"/>
      <point x="646" y="685" type="line"/>
      <point x="1056" y="0" type="line"/>
      <point x="1444" y="0" type="line"/>
      <point x="960" y="800" type="line"/>
      <point x="1403" y="1490" type="line"/>
      <point x="1029" y="1490" type="line"/>
      <point x="561" y="817" type="line"/>
      <point x="561" y="1490" type="line"/>
      <point x="222" y="1490" type="line"/>
    </contour>
  </outline>
</glyph>
<glyph name="L" format="1">
  <advance width="1208"/>
  <unicode hex="004C"/>
  <outline>
    <contour>
      <point x="222" y="0" type="line"/>
      <point x="1106" y="0" type="line"/>
      <point x="1106" y="266" type="line"/>
      <point x="561" y="266" type="line"/>
      <point x="561" y="1490" type="line"/>
      <point x="222" y="1490" type="line"/>
    </contour>
  </outline>
</glyph>
<glyph name="M" format="1">
  <advance width="1919"/>
  <unicode hex="004D"/>
  <outline>
    <contour>
      <point x="162" y="0" type="line"/>
      <point x="487" y="0" type="line"/>
      <point x="487" y="1074" type="line"/>
      <point x="849" y="186" type="line"/>
      <point x="1070" y="186" type="line"/>
      <point x="1432" y="1078" type="line"/>
      <point x="1432" y="0" type="line"/>
      <point x="1757" y="0" type="line"/>
      <point x="1755" y="1490" type="line"/>
      <point x="1267" y="1490" type="line"/>
      <point x="959" y="662" type="line"/>
      <point x="640" y="1490" type="line"/>
      <point x="162" y="1490" type="line"/>
    </contour>
  </outline>
</glyph>
<glyph name="N" format="1">
  <advance width="1663"/>
  <unicode hex="004E"/>
  <outline>
    <contour>
      <point x="177" y="0" type="line"/>
      <point x="486" y="0" type="line"/>
      <point x="486" y="948" type="line"/>
      <point x="1236" y="0" type="line"/>
      <point x="1482" y="0" type="line"/>
      <point x="1482" y="1490" type="line"/>
      <point x="1176" y="1490" type="line"/>
      <point x="1176" y="540" type="line"/>
      <point x="434" y="1490" type="line"/>
      <point x="177" y="1490" type="line"/>
    </contour>
  </outline>
</glyph>
<glyph name="O" format="1">
  <advance width="1637"/>
  <unicode hex="004F"/>
  <outline>
    <contour>
      <point x="1112" y="453" type="line" smooth="yes"/>
      <point x="1112" y="275"/>
      <point x="1040" y="237"/>
      <point x="830" y="237" type="curve" smooth="yes"/>
      <point x="623" y="237"/>
      <point x="525" y="274"/>
      <point x="525" y="453" type="curve" smooth="yes"/>
      <point x="525" y="1034" type="line" smooth="yes"/>
      <point x="525" y="1212"/>
      <point x="625" y="1252"/>
      <point x="830" y="1252" type="curve" smooth="yes"/>
      <point x="1037" y="1252"/>
      <point x="1112" y="1206"/>
      <point x="1112" y="1034" type="curve" smooth="yes"/>
    </contour>
    <contour>
      <point x="1451" y="504" type="curve" smooth="yes"/>
      <point x="1451" y="977" type="line" smooth="yes"/>
      <point x="1451" y="1272"/>
      <point x="1360" y="1518"/>
      <point x="830" y="1518" type="curve" smooth="yes"/>
      <point x="276" y="1518"/>
      <point x="186" y="1288"/>
      <point x="186" y="993" type="curve" smooth="yes"/>
      <point x="186" y="487" type="line" smooth="yes"/>
      <point x="186" y="200"/>
      <point x="279" y="-29"/>
      <point x="830" y="-29" type="curve" smooth="yes"/>
      <point x="1357" y="-29"/>
      <point x="1451" y="217"/>
    </contour>
  </outline>
</glyph>
<glyph name="P" format="1">
  <advance width="1425"/>
  <unicode hex="0050"/>
  <outline>
    <contour>
      <point x="561" y="733" type="line"/>
      <point x="561" y="1252" type="line"/>
      <point x="846" y="1252" type="line" smooth="yes"/>
      <point x="968" y="1252"/>
      <point x="1011" y="1157"/>
      <point x="1011" y="996" type="curve" smooth="yes"/>
      <point x="1011" y="806"/>
      <point x="974" y="733"/>
      <point x="834" y="733" type="curve" smooth="yes"/>
    </contour>
    <contour>
      <point x="222" y="0" type="line"/>
      <point x="561" y="0" type="line"/>
      <point x="561" y="487" type="line"/>
      <point x="768" y="487" type="line" smooth="yes"/>
      <point x="1216" y="487"/>
      <point x="1323" y="671"/>
      <point x="1323" y="1011" type="curve" smooth="yes"/>
      <point x="1323" y="1344"/>
      <point x="1172" y="1490"/>
      <point x="809" y="1490" type="curve" smooth="yes"/>
      <point x="222" y="1490" type="line"/>
    </contour>
  </outline>
</glyph>
<glyph name="Q" format="1">
  <advance width="1631"/>
  <unicode hex="0051"/>
  <outline>
    <contour>
      <point x="638.0" y="-10.0" type="line"/>
      <point x="934.0" y="-485.0" type="line"/>
      <point x="1144.0" y="-362.0" type="line"/>
      <point x="907.0" y="50.0" type="line"/>
    </contour>
    <component base="O"/>
  </outline>
</glyph>
<glyph name="R" format="1">
  <advance width="1583"/>
  <unicode hex="0052"/>
  <outline>
    <contour>
      <point x="842" y="594" type="line"/>
      <point x="1062" y="0" type="line"/>
      <point x="1423" y="0" type="line"/>
      <point x="1156" y="652" type="line"/>
    </contour>
    <contour>
      <point x="222" y="0" type="line"/>
      <point x="561" y="0" type="line"/>
      <point x="561" y="554" type="line"/>
      <point x="903" y="554" type="line" smooth="yes"/>
      <point x="1390" y="554"/>
      <point x="1413" y="819"/>
      <point x="1413" y="1035" type="curve" smooth="yes"/>
      <point x="1413" y="1275"/>
      <point x="1346" y="1490"/>
      <point x="888" y="1490" type="curve" smooth="yes"/>
      <point x="222" y="1490" type="line"/>
    </contour>
    <contour>
      <point x="561" y="792" type="line"/>
      <point x="561" y="1252" type="line"/>
      <point x="939" y="1252" type="line" smooth="yes"/>
      <point x="1071" y="1252"/>
      <point x="1093" y="1136"/>
      <point x="1093" y="1024" type="curve" smooth="yes"/>
      <point x="1093" y="903"/>
      <point x="1074" y="792"/>
      <point x="932" y="792" type="curve" smooth="yes"/>
    </contour>
  </outline>
</glyph>
<glyph name="S" format="1">
  <advance width="1357"/>
  <unicode hex="0053"/>
  <outline>
    <contour>
      <point x="262" y="397" type="line"/>
      <point x="321" y="360"/>
      <point x="543" y="255"/>
      <point x="689" y="255" type="curve" smooth="yes"/>
      <point x="807" y="255"/>
      <point x="879" y="322"/>
      <point x="879" y="410" type="curve" smooth="yes"/>
      <point x="879" y="485"/>
      <point x="850" y="512"/>
      <point x="665" y="595" type="curve" smooth="yes"/>
      <point x="467" y="682" type="line" smooth="yes"/>
      <point x="225" y="790"/>
      <point x="166" y="931"/>
      <point x="166" y="1077" type="curve" smooth="yes"/>
      <point x="166" y="1362"/>
      <point x="387" y="1520"/>
      <point x="691" y="1520" type="curve" smooth="yes"/>
      <point x="863" y="1520"/>
      <point x="1039" y="1457"/>
      <point x="1193" y="1370" type="curve"/>
      <point x="1075" y="1127" type="line"/>
      <point x="990" y="1171"/>
      <point x="831" y="1240"/>
      <point x="713" y="1245" type="curve" smooth="yes"/>
      <point x="590" y="1250"/>
      <point x="511" y="1193"/>
      <point x="511" y="1108" type="curve" smooth="yes"/>
      <point x="511" y="1012"/>
      <point x="568" y="986"/>
      <point x="723" y="916" type="curve" smooth="yes"/>
      <point x="911" y="831" type="line" smooth="yes"/>
      <point x="1099" y="746"/>
      <point x="1208" y="648"/>
      <point x="1208" y="438" type="curve" smooth="yes"/>
      <point x="1208" y="186"/>
      <point x="1082" y="-24"/>
      <point x="690" y="-24" type="curve" smooth="yes"/>
      <point x="495" y="-24"/>
      <point x="284" y="64"/>
      <point x="146" y="152" type="curve"/>
    </contour>
  </outline>
</glyph>
<glyph name="U" format="1">
  <advance width="1556"/>
  <unicode hex="0055"/>
  <outline>
    <contour>
      <point x="787" y="-24" type="curve" smooth="yes"/>
      <point x="1305" y="-24"/>
      <point x="1400" y="196"/>
      <point x="1400" y="483" type="curve" smooth="yes"/>
      <point x="1400" y="1490" type="line"/>
      <point x="1061" y="1490" type="line"/>
      <point x="1061" y="457" type="line" smooth="yes"/>
      <point x="1061" y="297"/>
      <point x="997" y="237"/>
      <point x="787" y="237" type="curve" smooth="yes"/>
      <point x="580" y="237"/>
      <point x="495" y="293"/>
      <point x="495" y="457" type="curve" smooth="yes"/>
      <point x="495" y="1490" type="line"/>
      <point x="156" y="1490" type="line"/>
      <point x="156" y="466" type="line" smooth="yes"/>
      <point x="156" y="179"/>
      <point x="268" y="-24"/>
    </contour>
  </outline>
</glyph>
<glyph name="V" format="1">
  <advance width="1333"/>
  <unicode hex="0056"/>
  <outline>
    <contour>
      <point x="519" y="0" type="line"/>
      <point x="806" y="0" type="line"/>
      <point x="1321" y="1490" type="line"/>
      <point x="962" y="1490" type="line"/>
      <point x="670" y="467" type="line"/>
      <point x="358" y="1490" type="line"/>
      <point x="12" y="1490" type="line"/>
    </contour>
  </outline>
</glyph>
<glyph name="W" format="1">
  <advance width="1968"/>
  <unicode hex="0057"/>
  <outline>
    <contour>
      <point x="419" y="0" type="line"/>
      <point x="716" y="0" type="line"/>
      <point x="972" y="975" type="line"/>
      <point x="1257" y="0" type="line"/>
      <point x="1544" y="0" type="line"/>
      <point x="1916" y="1490" type="line"/>
      <point x="1586" y="1490" type="line"/>
      <point x="1379" y="519" type="line"/>
      <point x="1103" y="1490" type="line"/>
      <point x="836" y="1490" type="line"/>
      <point x="608" y="503" type="line"/>
      <point x="385" y="1490" type="line"/>
      <point x="52" y="1490" type="line"/>
    </contour>
  </outline>
</glyph>
<glyph name="X" format="1">
  <advance width="1366"/>
  <unicode hex="0058"/>
  <outline>
    <contour>
      <point x="16" y="0" type="line"/>
      <point x="369" y="0" type="line"/>
      <point x="674" y="472" type="line"/>
      <point x="976" y="0" type="line"/>
      <point x="1350" y="0" type="line"/>
      <point x="858" y="756" type="line"/>
      <point x="1332" y="1490" type="line"/>
      <point x="955" y="1490" type="line"/>
      <point x="672" y="1041" type="line"/>
      <point x="380" y="1490" type="line"/>
      <point x="24" y="1490" type="line"/>
      <point x="493" y="756" type="line"/>
    </contour>
  </outline>
</glyph>
<glyph name="Y" format="1">
  <advance width="1353"/>
  <unicode hex="0059"/>
  <outline>
    <contour>
      <point x="507" y="0" type="line"/>
      <point x="846" y="0" type="line"/>
      <point x="846" y="655" type="line"/>
      <point x="1363" y="1490" type="line"/>
      <point x="995" y="1490" type="line"/>
      <point x="680" y="972" type="line"/>
      <point x="368" y="1490" type="line"/>
      <point x="1" y="1490" type="line"/>
      <point x="507" y="655" type="line"/>
    </contour>
  </outline>
</glyph>
<glyph name="Z" format="1">
  <advance width="1179"/>
  <unicode hex="005A"/>
  <outline>
    <contour>
      <point x="114" y="0" type="line"/>
      <point x="1087" y="0" type="line"/>
      <point x="1087" y="207" type="line"/>
      <point x="479" y="207" type="line"/>
      <point x="1076" y="1300" type="line"/>
      <point x="1076" y="1490" type="line"/>
      <point x="140" y="1490" type="line"/>
      <point x="140" y="1283" type="line"/>
      <point x="708" y="1283" type="line"/>
      <point x="114" y="189" type="line"/>
    </contour>
  </outline>
</glyph>
<glyph name="bracketright" format="1">
  <advance width="602"/>
  <unicode hex="005D"/>
  <outline>
    <contour>
      <point x="63" y="-53" type="line"/>
      <point x="487" y="-53" type="line"/>
      <point x="487" y="1536" type="line"/>
      <point x="63" y="1536" type="line"/>
      <point x="63" y="1430" type="line"/>
      <point x="275" y="1430" type="line"/>
      <point x="275" y="53" type="line"/>
      <point x="63" y="53" type="line"/>
    </contour>
  </outline>
</glyph>
<glyph name="grave" format="1">
  <advance width="529"/>
  <unicode hex="0060"/>
  <outline>
    <contour>
      <point x="292" y="1153" type="line"/>
      <point x="462" y="1153" type="line"/>
      <point x="349" y="1518" type="line"/>
      <point x="63" y="1518" type="line"/>
    </contour>
  </outline>
</glyph>
<glyph name="a" format="1">
  <advance width="1096"/>
  <unicode hex="0061"/>
  <outline>
    <contour>
      <point x="659" y="228" type="line"/>
      <point x="589" y="195"/>
      <point x="536" y="182"/>
      <point x="497" y="182" type="curve" smooth="yes"/>
      <point x="421" y="182"/>
      <point x="397" y="244"/>
      <point x="397" y="307" type="curve" smooth="yes"/>
      <point x="397" y="400"/>
      <point x="442" y="411"/>
      <point x="659" y="438" type="curve"/>
    </contour>
    <contour>
      <point x="760" y="0" type="line"/>
      <point x="968" y="0" type="line"/>
      <point x="968" y="287" type="line"/>
      <point x="968" y="800" type="line" smooth="yes"/>
      <point x="968" y="967"/>
      <point x="861" y="1105"/>
      <point x="578" y="1105" type="curve" smooth="yes"/>
      <point x="241" y="1105"/>
      <point x="139" y="966"/>
      <point x="139" y="719" type="curve"/>
      <point x="427" y="719" type="line"/>
      <point x="427" y="780" type="line" smooth="yes"/>
      <point x="427" y="833"/>
      <point x="437" y="894"/>
      <point x="553" y="894" type="curve" smooth="yes"/>
      <point x="638" y="894"/>
      <point x="658" y="852"/>
      <point x="658" y="780" type="curve" smooth="yes"/>
      <point x="658" y="607" type="line"/>
      <point x="253" y="570"/>
      <point x="121" y="544"/>
      <point x="121" y="278" type="curve" smooth="yes"/>
      <point x="121" y="93"/>
      <point x="240" y="-24"/>
      <point x="406" y="-24" type="curve" smooth="yes"/>
      <point x="545" y="-24"/>
      <point x="638" y="23"/>
      <point x="701" y="131" type="curve"/>
    </contour>
  </outline>
</glyph>
<glyph name="b" format="1">
  <advance width="1129"/>
  <unicode hex="0062"/>
  <outline>
    <contour>
      <point x="167" y="413" type="line"/>
      <point x="433" y="413" type="line"/>
      <point x="433" y="237" type="line"/>
      <point x="453" y="219"/>
      <point x="501" y="186"/>
      <point x="588" y="186" type="curve" smooth="yes"/>
      <point x="687" y="186"/>
      <point x="722" y="246"/>
      <point x="722" y="282" type="curve" smooth="yes"/>
      <point x="722" y="809" type="line" smooth="yes"/>
      <point x="722" y="857"/>
      <point x="662" y="894"/>
      <point x="575" y="894" type="curve" smooth="yes"/>
      <point x="512" y="894"/>
      <point x="461" y="876"/>
      <point x="433" y="850" type="curve"/>
      <point x="433" y="679" type="line"/>
      <point x="167" y="679" type="line"/>
      <point x="167" y="700" type="line" smooth="yes"/>
      <point x="167" y="732"/>
      <point x="287" y="1104"/>
      <point x="635" y="1104" type="curve" smooth="yes"/>
      <point x="910" y="1104"/>
      <point x="1032" y="961"/>
      <point x="1032" y="740" type="curve" smooth="yes"/>
      <point x="1032" y="281" type="line" smooth="yes"/>
      <point x="1032" y="99"/>
      <point x="868" y="-24"/>
      <point x="643" y="-24" type="curve" smooth="yes"/>
      <point x="353" y="-24"/>
      <point x="167" y="232"/>
      <point x="167" y="411" type="curve" smooth="yes"/>
    </contour>
    <contour>
      <point x="122" y="0" type="line"/>
      <point x="122" y="1490" type="line"/>
      <point x="433" y="1490" type="line"/>
      <point x="433" y="225" type="line"/>
      <point x="333" y="0" type="line"/>
    </contour>
  </outline>
</glyph>
<glyph name="c" format="1">
  <advance width="1186"/>
  <unicode hex="0063"/>
  <outline>
    <contour>
      <point x="608" y="-24" type="curve" smooth="yes"/>
      <point x="975" y="-24"/>
      <point x="1050" y="102"/>
      <point x="1050" y="431" type="curve"/>
      <point x="756" y="431" type="line"/>
      <point x="756" y="220"/>
      <point x="738" y="186"/>
      <point x="615" y="186" type="curve" smooth="yes"/>
      <point x="502" y="186"/>
      <point x="462" y="220"/>
      <point x="462" y="319" type="curve" smooth="yes"/>
      <point x="462" y="761" type="line" smooth="yes"/>
      <point x="462" y="860"/>
      <point x="512" y="894"/>
      <point x="615" y="894" type="curve" smooth="yes"/>
      <point x="740" y="894"/>
      <point x="756" y="860"/>
      <point x="756" y="669" type="curve"/>
      <point x="1050" y="669" type="line"/>
      <point x="1050" y="1009"/>
      <point x="909" y="1104"/>
      <point x="605" y="1104" type="curve" smooth="yes"/>
      <point x="316" y="1104"/>
      <point x="152" y="982"/>
      <point x="152" y="761" type="curve" smooth="yes"/>
      <point x="152" y="319" type="line" smooth="yes"/>
      <point x="152" y="137"/>
      <point x="219" y="-24"/>
    </contour>
  </outline>
</glyph>
<glyph name="d" format="1">
  <advance width="1260"/>
  <unicode hex="0064"/>
  <outline>
    <contour>
      <point x="807" y="851" type="line"/>
      <point x="807" y="851"/>
      <point x="731" y="894"/>
      <point x="628" y="894" type="curve" smooth="yes"/>
      <point x="515" y="894"/>
      <point x="452" y="860"/>
      <point x="452" y="761" type="curve" smooth="yes"/>
      <point x="452" y="319" type="line" smooth="yes"/>
      <point x="452" y="220"/>
      <point x="508" y="186"/>
      <point x="620" y="186" type="curve" smooth="yes"/>
      <point x="733" y="186"/>
      <point x="848" y="220"/>
      <point x="848" y="319" type="curve"/>
      <point x="1091" y="421" type="line"/>
      <point x="1091" y="410" type="line" smooth="yes"/>
      <point x="1091" y="313"/>
      <point x="924" y="-25"/>
      <point x="579" y="-25" type="curve" smooth="yes"/>
      <point x="294" y="-25"/>
      <point x="142" y="98"/>
      <point x="142" y="319" type="curve" smooth="yes"/>
      <point x="142" y="761" type="line" smooth="yes"/>
      <point x="142" y="953"/>
      <point x="281" y="1104"/>
      <point x="596" y="1104" type="curve" smooth="yes"/>
      <point x="717" y="1104"/>
      <point x="875" y="1043"/>
      <point x="957" y="982" type="curve"/>
    </contour>
    <contour>
      <point x="1099" y="0" type="line"/>
      <point x="888" y="0" type="line"/>
      <point x="788" y="214" type="line"/>
      <point x="788" y="1490" type="line"/>
      <point x="1099" y="1490" type="line"/>
    </contour>
  </outline>
</glyph>
<glyph name="e" format="1">
  <advance width="1061"/>
  <unicode hex="0065"/>
  <outline>
    <contour>
      <point x="525" y="-24" type="curve"/>
      <point x="285" y="-24"/>
      <point x="97" y="96"/>
      <point x="97" y="281" type="curve" smooth="yes"/>
      <point x="97" y="740" type="line" smooth="yes"/>
      <point x="97" y="953"/>
      <point x="254" y="1104"/>
      <point x="523" y="1104" type="curve" smooth="yes"/>
      <point x="871" y="1104"/>
      <point x="959" y="962"/>
      <point x="959" y="740" type="curve" smooth="yes"/>
      <point x="959" y="664" type="line"/>
      <point x="960" y="664" type="line"/>
      <point x="960" y="515" type="line"/>
      <point x="407" y="515" type="line"/>
      <point x="407" y="288" type="line" smooth="yes"/>
      <point x="407" y="252"/>
      <point x="433" y="186"/>
      <point x="532" y="186" type="curve" smooth="yes"/>
      <point x="635" y="186"/>
      <point x="657" y="250"/>
      <point x="657" y="288" type="curve" smooth="yes"/>
      <point x="657" y="413" type="line"/>
      <point x="959" y="413" type="line"/>
      <point x="959" y="281" type="line" smooth="yes"/>
      <point x="959" y="96"/>
      <point x="815" y="-24"/>
    </contour>
    <contour>
      <point x="407" y="664" type="line"/>
      <point x="657" y="664" type="line"/>
      <point x="657" y="812" type="line" smooth="yes"/>
      <point x="657" y="849"/>
      <point x="626" y="894"/>
      <point x="532" y="894" type="curve" smooth="yes"/>
      <point x="441" y="894"/>
      <point x="407" y="827"/>
      <point x="407" y="792" type="curve" smooth="yes"/>
    </contour>
  </outline>
</glyph>
<glyph name="f" format="1">
  <advance width="841"/>
  <unicode hex="0066"/>
  <outline>
    <contour>
      <point x="242" y="0" type="line"/>
      <point x="552" y="0" type="line"/>
      <point x="552" y="894" type="line"/>
      <point x="748" y="894" type="line"/>
      <point x="748" y="1080" type="line"/>
      <point x="552" y="1080" type="line"/>
      <point x="552" y="1130" type="line" smooth="yes"/>
      <point x="552" y="1201"/>
      <point x="556" y="1255"/>
      <point x="675" y="1255" type="curve" smooth="yes"/>
      <point x="751" y="1255" type="line"/>
      <point x="751" y="1468" type="line"/>
      <point x="582" y="1468" type="line" smooth="yes"/>
      <point x="370" y="1468"/>
      <point x="242" y="1363"/>
      <point x="242" y="1082" type="curve" smooth="yes"/>
      <point x="242" y="1080" type="line"/>
      <point x="115" y="1080" type="line"/>
      <point x="115" y="894" type="line"/>
      <point x="242" y="894" type="line"/>
    </contour>
  </outline>
</glyph>
<glyph name="g" format="1">
  <advance width="1260"/>
  <unicode hex="0067"/>
  <outline>
    <contour>
      <point x="788" y="851" type="line"/>
      <point x="788" y="851"/>
      <point x="723" y="894"/>
      <point x="620" y="894" type="curve" smooth="yes"/>
      <point x="507" y="894"/>
      <point x="452" y="860"/>
      <point x="452" y="761" type="curve" smooth="yes"/>
      <point x="452" y="361" type="line" smooth="yes"/>
      <point x="452" y="262"/>
      <point x="517" y="228"/>
      <point x="620" y="228" type="curve" smooth="yes"/>
      <point x="733" y="228"/>
      <point x="828" y="244"/>
      <point x="828" y="343" type="curve"/>
      <point x="788" y="435" type="line"/>
      <point x="1091" y="435" type="line"/>
      <point x="1091" y="424" type="line" smooth="yes"/>
      <point x="1091" y="327"/>
      <point x="913" y="28"/>
      <point x="568" y="28" type="curve" smooth="yes"/>
      <point x="313" y="28"/>
      <point x="142" y="153"/>
      <point x="142" y="361" type="curve" smooth="yes"/>
      <point x="142" y="761" type="line" smooth="yes"/>
      <point x="142" y="932"/>
      <point x="238" y="1104"/>
      <point x="553" y="1104" type="curve" smooth="yes"/>
      <point x="886" y="1104"/>
      <point x="1067" y="812"/>
      <point x="1091" y="659" type="curve"/>
      <point x="1091" y="649" type="line"/>
      <point x="788" y="649" type="line"/>
    </contour>
    <contour>
      <point x="1099" y="1081" type="line"/>
      <point x="1099" y="-10" type="line"/>
      <point x="788" y="6" type="line"/>
      <point x="788" y="856" type="line"/>
      <point x="888" y="1081" type="line"/>
    </contour>
    <contour>
      <point x="284" y="-141" type="line"/>
      <point x="400" y="-171"/>
      <point x="493" y="-185"/>
      <point x="565" y="-185" type="curve" smooth="yes"/>
      <point x="724" y="-185"/>
      <point x="788" y="-119"/>
      <point x="788" y="-11" type="curve" smooth="yes"/>
      <point x="788" y="17" type="line"/>
      <point x="1099" y="-10" type="line"/>
      <point x="1099" y="-208"/>
      <point x="981" y="-408"/>
      <point x="607" y="-408" type="curve" smooth="yes"/>
      <point x="479" y="-408"/>
      <point x="295" y="-384"/>
      <point x="222" y="-345" type="curve"/>
    </contour>
  </outline>
</glyph>
<glyph name="h" format="1">
  <advance width="1276"/>
  <unicode hex="0068"/>
  <outline>
    <contour>
      <point x="161" y="0" type="line"/>
      <point x="471" y="0" type="line"/>
      <point x="471" y="760" type="line" smooth="yes"/>
      <point x="471" y="865"/>
      <point x="589" y="894"/>
      <point x="650" y="894" type="curve" smooth="yes"/>
      <point x="714" y="894"/>
      <point x="812" y="879"/>
      <point x="812" y="763" type="curve" smooth="yes"/>
      <point x="812" y="0" type="line"/>
      <point x="1123" y="0" type="line"/>
      <point x="1123" y="804" type="line" smooth="yes"/>
      <point x="1123" y="991"/>
      <point x="979" y="1104"/>
      <point x="797" y="1104" type="curve" smooth="yes"/>
      <point x="650" y="1104"/>
      <point x="509" y="1036"/>
      <point x="471" y="960" type="curve"/>
      <point x="471" y="1490" type="line"/>
      <point x="161" y="1490" type="line"/>
    </contour>
  </outline>
</glyph>
<glyph name="j" format="1">
  <advance width="578"/>
  <unicode hex="006A"/>
  <outline>
    <contour>
      <point x="-39" y="-319" type="line"/>
      <point x="79" y="-319" type="line" smooth="yes"/>
      <point x="374" y="-319"/>
      <point x="456" y="-130"/>
      <point x="456" y="40" type="curve" smooth="yes"/>
      <point x="456" y="1080" type="line"/>
      <point x="146" y="1080" type="line"/>
      <point x="146" y="64" type="line" smooth="yes"/>
      <point x="146" y="21"/>
      <point x="146" y="-108"/>
      <point x="3" y="-108" type="curve" smooth="yes"/>
      <point x="-39" y="-108" type="line"/>
    </contour>
    <contour>
      <point x="146" y="1174" type="line"/>
      <point x="456" y="1174" type="line"/>
      <point x="456" y="1435" type="line"/>
      <point x="146" y="1435" type="line"/>
    </contour>
  </outline>
</glyph>
<glyph name="k" format="1">
  <advance width="1248"/>
  <unicode hex="006B"/>
  <outline>
    <contour>
      <point x="161" y="0" type="line"/>
      <point x="471" y="0" type="line"/>
      <point x="471" y="398" type="line"/>
      <point x="545" y="476" type="line"/>
      <point x="836" y="0" type="line"/>
      <point x="1210" y="0" type="line"/>
      <point x="813" y="614" type="line"/>
      <point x="1198" y="1080" type="line"/>
      <point x="823" y="1080" type="line"/>
      <point x="471" y="642" type="line"/>
      <point x="471" y="1490" type="line"/>
      <point x="161" y="1490" type="line"/>
    </contour>
  </outline>
</glyph>
<glyph name="l" format="1">
  <advance width="739"/>
  <unicode hex="006C"/>
  <outline>
    <contour>
      <point x="166" y="1490" type="line"/>
      <point x="166" y="398" type="line" smooth="yes"/>
      <point x="166" y="145"/>
      <point x="280" y="0"/>
      <point x="522" y="0" type="curve" smooth="yes"/>
      <point x="661" y="0" type="line"/>
      <point x="661" y="220" type="line"/>
      <point x="532" y="220"/>
      <point x="476" y="272"/>
      <point x="476" y="369" type="curve" smooth="yes"/>
      <point x="476" y="1490" type="line"/>
    </contour>
  </outline>
</glyph>
<glyph name="m" format="1">
  <advance width="1859"/>
  <unicode hex="006D"/>
  <outline>
    <contour>
      <point x="1088" y="760" type="line"/>
      <point x="1088" y="865"/>
      <point x="1197" y="894"/>
      <point x="1258" y="894" type="curve" smooth="yes"/>
      <point x="1322" y="894"/>
      <point x="1395" y="879"/>
      <point x="1395" y="763" type="curve" smooth="yes"/>
      <point x="1395" y="0" type="line"/>
      <point x="1706" y="0" type="line"/>
      <point x="1706" y="804" type="line" smooth="yes"/>
      <point x="1706" y="991"/>
      <point x="1568" y="1104"/>
      <point x="1386" y="1104" type="curve" smooth="yes"/>
      <point x="1239" y="1104"/>
      <point x="1114" y="1034"/>
      <point x="1056" y="961" type="curve"/>
      <point x="965" y="859" type="line"/>
    </contour>
    <contour>
      <point x="161" y="0" type="line"/>
      <point x="471" y="0" type="line"/>
      <point x="471" y="760" type="line" smooth="yes"/>
      <point x="471" y="865"/>
      <point x="580" y="894"/>
      <point x="641" y="894" type="curve" smooth="yes"/>
      <point x="705" y="894"/>
      <point x="778" y="879"/>
      <point x="778" y="763" type="curve" smooth="yes"/>
      <point x="778" y="0" type="line"/>
      <point x="1089" y="0" type="line"/>
      <point x="1089" y="804" type="line" smooth="yes"/>
      <point x="1089" y="991"/>
      <point x="960" y="1104"/>
      <point x="778" y="1104" type="curve" smooth="yes"/>
      <point x="631" y="1104"/>
      <point x="509" y="1031"/>
      <point x="471" y="944" type="curve"/>
      <point x="471" y="1080" type="line"/>
      <point x="161" y="1080" type="line"/>
    </contour>
  </outline>
</glyph>
<glyph name="n" format="1">
  <advance width="1291"/>
  <unicode hex="006E"/>
  <outline>
    <contour>
      <point x="161" y="0" type="line"/>
      <point x="471" y="0" type="line"/>
      <point x="471" y="760" type="line" smooth="yes"/>
      <point x="471" y="865"/>
      <point x="594" y="894"/>
      <point x="655" y="894" type="curve" smooth="yes"/>
      <point x="719" y="894"/>
      <point x="828" y="879"/>
      <point x="828" y="763" type="curve" smooth="yes"/>
      <point x="828" y="0" type="line"/>
      <point x="1138" y="0" type="line"/>
      <point x="1138" y="804" type="line" smooth="yes"/>
      <point x="1138" y="991"/>
      <point x="981" y="1104"/>
      <point x="799" y="1104" type="curve" smooth="yes"/>
      <point x="652" y="1104"/>
      <point x="509" y="1031"/>
      <point x="471" y="944" type="curve"/>
      <point x="471" y="1080" type="line"/>
      <point x="161" y="1080" type="line"/>
    </contour>
  </outline>
</glyph>
<glyph name="o" format="1">
  <advance width="1240"/>
  <unicode hex="006F"/>
  <outline>
    <contour>
      <point x="788" y="319" type="curve" smooth="yes"/>
      <point x="788" y="761" type="line" smooth="yes"/>
      <point x="788" y="860"/>
      <point x="733" y="894"/>
      <point x="620" y="894" type="curve" smooth="yes"/>
      <point x="517" y="894"/>
      <point x="452" y="860"/>
      <point x="452" y="761" type="curve" smooth="yes"/>
      <point x="452" y="319" type="line" smooth="yes"/>
      <point x="452" y="220"/>
      <point x="507" y="186"/>
      <point x="620" y="186" type="curve" smooth="yes"/>
      <point x="723" y="186"/>
      <point x="788" y="220"/>
    </contour>
    <contour>
      <point x="1098" y="330" type="line" smooth="yes"/>
      <point x="1098" y="109"/>
      <point x="984" y="-24"/>
      <point x="620" y="-24" type="curve" smooth="yes"/>
      <point x="272" y="-24"/>
      <point x="142" y="108"/>
      <point x="142" y="330" type="curve" smooth="yes"/>
      <point x="142" y="750" type="line" smooth="yes"/>
      <point x="142" y="980"/>
      <point x="336" y="1104"/>
      <point x="620" y="1104" type="curve" smooth="yes"/>
      <point x="904" y="1104"/>
      <point x="1098" y="980"/>
      <point x="1098" y="750" type="curve" smooth="yes"/>
    </contour>
  </outline>
</glyph>
<glyph name="p" format="1">
  <advance width="1260"/>
  <unicode hex="0070"/>
  <outline>
    <contour>
      <point x="472" y="228" type="line"/>
      <point x="472" y="228"/>
      <point x="537" y="186"/>
      <point x="640" y="186" type="curve" smooth="yes"/>
      <point x="753" y="186"/>
      <point x="808" y="219"/>
      <point x="808" y="318" type="curve" smooth="yes"/>
      <point x="808" y="760" type="line" smooth="yes"/>
      <point x="808" y="859"/>
      <point x="753" y="894"/>
      <point x="650" y="894" type="curve" smooth="yes"/>
      <point x="537" y="894"/>
      <point x="432" y="859"/>
      <point x="432" y="760" type="curve"/>
      <point x="472" y="668" type="line"/>
      <point x="169" y="668" type="line"/>
      <point x="169" y="679" type="line" smooth="yes"/>
      <point x="169" y="776"/>
      <point x="358" y="1104"/>
      <point x="703" y="1104" type="curve" smooth="yes"/>
      <point x="958" y="1104"/>
      <point x="1118" y="968"/>
      <point x="1118" y="760" type="curve" smooth="yes"/>
      <point x="1118" y="318" type="line" smooth="yes"/>
      <point x="1118" y="147"/>
      <point x="982" y="-25"/>
      <point x="667" y="-25" type="curve" smooth="yes"/>
      <point x="334" y="-25"/>
      <point x="193" y="267"/>
      <point x="169" y="420" type="curve"/>
      <point x="169" y="430" type="line"/>
      <point x="472" y="430" type="line"/>
    </contour>
    <contour>
      <point x="161" y="1080" type="line"/>
      <point x="372" y="1080" type="line"/>
      <point x="472" y="854" type="line"/>
      <point x="472" y="-411" type="line"/>
      <point x="161" y="-411" type="line"/>
    </contour>
  </outline>
</glyph>
<glyph name="q" format="1">
  <advance width="1260"/>
  <unicode hex="0071"/>
  <outline>
    <contour>
      <point x="788" y="228" type="line"/>
      <point x="788" y="228"/>
      <point x="723" y="186"/>
      <point x="620" y="186" type="curve" smooth="yes"/>
      <point x="507" y="186"/>
      <point x="452" y="219"/>
      <point x="452" y="318" type="curve" smooth="yes"/>
      <point x="452" y="760" type="line" smooth="yes"/>
      <point x="452" y="859"/>
      <point x="517" y="894"/>
      <point x="620" y="894" type="curve" smooth="yes"/>
      <point x="733" y="894"/>
      <point x="828" y="859"/>
      <point x="828" y="760" type="curve"/>
      <point x="788" y="668" type="line"/>
      <point x="1091" y="668" type="line"/>
      <point x="1091" y="679" type="line" smooth="yes"/>
      <point x="1091" y="776"/>
      <point x="912" y="1104"/>
      <point x="567" y="1104" type="curve" smooth="yes"/>
      <point x="312" y="1104"/>
      <point x="142" y="968"/>
      <point x="142" y="760" type="curve" smooth="yes"/>
      <point x="142" y="318" type="line" smooth="yes"/>
      <point x="142" y="147"/>
      <point x="237" y="-24"/>
      <point x="552" y="-24" type="curve" smooth="yes"/>
      <point x="885" y="-24"/>
      <point x="1067" y="268"/>
      <point x="1091" y="420" type="curve"/>
      <point x="1091" y="430" type="line"/>
      <point x="788" y="430" type="line"/>
    </contour>
    <contour>
      <point x="1099" y="1080" type="line"/>
      <point x="888" y="1080" type="line"/>
      <point x="788" y="854" type="line"/>
      <point x="788" y="-411" type="line"/>
      <point x="1099" y="-411" type="line"/>
    </contour>
  </outline>
</glyph>
<glyph name="r" format="1">
  <advance width="902"/>
  <unicode hex="0072"/>
  <outline>
    <contour>
      <point x="161" y="0" type="line"/>
      <point x="471" y="0" type="line"/>
      <point x="471" y="740" type="line"/>
      <point x="501" y="826"/>
      <point x="716" y="832"/>
      <point x="835" y="842" type="curve"/>
      <point x="841" y="1097" type="line"/>
      <point x="751" y="1111"/>
      <point x="522" y="1044"/>
      <point x="471" y="962" type="curve"/>
      <point x="471" y="1080" type="line"/>
      <point x="161" y="1080" type="line"/>
    </contour>
  </outline>
</glyph>
<glyph name="s" format="1">
  <advance width="1034"/>
  <unicode hex="0073"/>
  <outline>
    <contour>
      <point x="212" y="315" type="line"/>
      <point x="338" y="222"/>
      <point x="454" y="188"/>
      <point x="542" y="188" type="curve" smooth="yes"/>
      <point x="602" y="188"/>
      <point x="638" y="220"/>
      <point x="649" y="267" type="curve" smooth="yes"/>
      <point x="651" y="274"/>
      <point x="651" y="281"/>
      <point x="651" y="288" type="curve" smooth="yes"/>
      <point x="651" y="328"/>
      <point x="622" y="366"/>
      <point x="553" y="396" type="curve" smooth="yes"/>
      <point x="340" y="495" type="line" smooth="yes"/>
      <point x="181" y="564"/>
      <point x="121" y="645"/>
      <point x="121" y="784" type="curve" smooth="yes"/>
      <point x="121" y="1013"/>
      <point x="309" y="1104"/>
      <point x="522" y="1104" type="curve" smooth="yes"/>
      <point x="719" y="1104"/>
      <point x="864" y="1022"/>
      <point x="929" y="958" type="curve"/>
      <point x="828" y="793" type="line"/>
      <point x="770" y="839"/>
      <point x="648" y="901"/>
      <point x="542" y="901" type="curve" smooth="yes"/>
      <point x="452" y="901"/>
      <point x="418" y="864"/>
      <point x="418" y="805" type="curve" smooth="yes"/>
      <point x="418" y="759"/>
      <point x="454" y="733"/>
      <point x="497" y="714" type="curve" smooth="yes"/>
      <point x="699" y="620" type="line" smooth="yes"/>
      <point x="870" y="545"/>
      <point x="942" y="482"/>
      <point x="942" y="313" type="curve" smooth="yes"/>
      <point x="942" y="125"/>
      <point x="801" y="-24"/>
      <point x="544" y="-24" type="curve" smooth="yes"/>
      <point x="373" y="-24"/>
      <point x="217" y="30"/>
      <point x="98" y="132" type="curve"/>
    </contour>
  </outline>
</glyph>
<glyph name="t" format="1">
  <advance width="866"/>
  <unicode hex="0074"/>
  <outline>
    <contour>
      <point x="183" y="894" type="line"/>
      <point x="183" y="401" type="line" smooth="yes"/>
      <point x="183" y="107"/>
      <point x="380" y="-10"/>
      <point x="718" y="-10" type="curve" smooth="yes"/>
      <point x="783" y="-10" type="line"/>
      <point x="783" y="227" type="line"/>
      <point x="730" y="227" type="line" smooth="yes"/>
      <point x="549" y="227"/>
      <point x="493" y="294"/>
      <point x="493" y="424" type="curve" smooth="yes"/>
      <point x="493" y="894" type="line"/>
      <point x="776" y="894" type="line"/>
      <point x="776" y="1076" type="line"/>
      <point x="493" y="1076" type="line"/>
      <point x="493" y="1433" type="line"/>
      <point x="212" y="1433" type="line"/>
      <point x="192" y="1076" type="line"/>
      <point x="57" y="1076" type="line"/>
      <point x="57" y="894" type="line"/>
    </contour>
  </outline>
</glyph>
<glyph name="u" format="1">
  <advance width="1276"/>
  <unicode hex="0075"/>
  <outline>
    <contour>
      <point x="1115" y="1080" type="line"/>
      <point x="805" y="1080" type="line"/>
      <point x="805" y="320" type="line" smooth="yes"/>
      <point x="805" y="215"/>
      <point x="688" y="186"/>
      <point x="627" y="186" type="curve" smooth="yes"/>
      <point x="563" y="186"/>
      <point x="463" y="201"/>
      <point x="463" y="317" type="curve" smooth="yes"/>
      <point x="463" y="1080" type="line"/>
      <point x="153" y="1080" type="line"/>
      <point x="153" y="276" type="line" smooth="yes"/>
      <point x="153" y="89"/>
      <point x="301" y="-24"/>
      <point x="483" y="-24" type="curve" smooth="yes"/>
      <point x="630" y="-24"/>
      <point x="767" y="49"/>
      <point x="805" y="136" type="curve"/>
      <point x="805" y="0" type="line"/>
      <point x="1115" y="0" type="line"/>
    </contour>
  </outline>
</glyph>
<glyph name="v" format="1">
  <advance width="1008"/>
  <unicode hex="0076"/>
  <outline>
    <contour>
      <point x="330" y="0" type="line"/>
      <point x="678" y="0" type="line"/>
      <point x="984" y="1076" type="line"/>
      <point x="676" y="1076" type="line"/>
      <point x="517" y="329" type="line"/>
      <point x="321" y="1076" type="line"/>
      <point x="24" y="1076" type="line"/>
    </contour>
  </outline>
</glyph>
<glyph name="w" format="1">
  <advance width="1617"/>
  <unicode hex="0077"/>
  <outline>
    <contour>
      <point x="332" y="0" type="line"/>
      <point x="614" y="0" type="line"/>
      <point x="817" y="692" type="line"/>
      <point x="1008" y="0" type="line"/>
      <point x="1302" y="0" type="line"/>
      <point x="1546" y="1080" type="line"/>
      <point x="1259" y="1080" type="line"/>
      <point x="1121" y="401" type="line"/>
      <point x="928" y="1080" type="line"/>
      <point x="701" y="1080" type="line"/>
      <point x="513" y="414" type="line"/>
      <point x="362" y="1080" type="line"/>
      <point x="71" y="1080" type="line"/>
    </contour>
  </outline>
</glyph>
<glyph name="x" format="1">
  <advance width="1116"/>
  <unicode hex="0078"/>
  <outline>
    <contour>
      <point x="763" y="0" type="line"/>
      <point x="1066" y="0" type="line"/>
      <point x="378" y="1080" type="line"/>
      <point x="55" y="1080" type="line"/>
    </contour>
    <contour>
      <point x="56" y="0" type="line"/>
      <point x="378" y="0" type="line"/>
      <point x="1066" y="1080" type="line"/>
      <point x="763" y="1080" type="line"/>
    </contour>
  </outline>
</glyph>
<glyph name="y" format="1">
  <advance width="1127"/>
  <unicode hex="0079"/>
  <outline>
    <contour>
      <point x="269.0" y="-416" type="line" smooth="yes"/>
      <point x="582.0" y="-416"/>
      <point x="632" y="-336"/>
      <point x="778" y="105" type="curve" smooth="yes"/>
      <point x="1100" y="1076" type="line"/>
      <point x="780" y="1076" type="line"/>
      <point x="576" y="399" type="line"/>
      <point x="324" y="1076" type="line"/>
      <point x="6" y="1076" type="line"/>
      <point x="433" y="-4" type="line"/>
      <point x="402" y="-119"/>
      <point x="383" y="-192"/>
      <point x="265" y="-192" type="curve" smooth="yes"/>
      <point x="146" y="-192" type="line"/>
      <point x="146.0" y="-416" type="line"/>
    </contour>
  </outline>
</glyph>
<glyph name="braceleft" format="1">
  <advance width="630"/>
  <unicode hex="007B"/>
  <outline>
    <contour>
      <point x="564" y="-53" type="curve"/>
      <point x="564" y="131" type="line"/>
      <point x="394" y="130"/>
      <point x="410" y="288"/>
      <point x="401" y="452" type="curve" smooth="yes"/>
      <point x="394" y="577"/>
      <point x="375" y="705"/>
      <point x="257" y="773" type="curve"/>
      <point x="381" y="845"/>
      <point x="403" y="1040"/>
      <point x="403" y="1158" type="curve" smooth="yes"/>
      <point x="403" y="1335"/>
      <point x="403" y="1395"/>
      <point x="564" y="1394" type="curve"/>
      <point x="564" y="1578" type="line"/>
      <point x="263" y="1578"/>
      <point x="166" y="1504"/>
      <point x="166" y="1158" type="curve" smooth="yes"/>
      <point x="166" y="1085"/>
      <point x="187" y="880"/>
      <point x="58" y="881" type="curve"/>
      <point x="58" y="644" type="line"/>
      <point x="186" y="646"/>
      <point x="166" y="543"/>
      <point x="166" y="440" type="curve" smooth="yes"/>
      <point x="166" y="135"/>
      <point x="230" y="-53"/>
    </contour>
  </outline>
</glyph>
<glyph name="sterling" format="1">
  <advance width="1290"/>
  <unicode hex="00A3"/>
  <outline>
    <contour>
      <point x="1089" y="600" type="line"/>
      <point x="1089" y="814" type="line"/>
      <point x="123" y="814" type="line"/>
      <point x="123" y="600" type="line"/>
    </contour>
    <contour>
      <point x="450.0" y="254.0" type="line"/>
      <point x="234.0" y="254.0" type="line"/>
      <point x="234.0" y="-2.27373675443e-13" type="line"/>
      <point x="1123" y="0" type="line"/>
      <point x="1123" y="254" type="line"/>
    </contour>
    <contour>
      <point x="1185.0" y="1424.0" type="line"/>
      <point x="1027.0" y="1497.0"/>
      <point x="938" y="1529"/>
      <point x="805" y="1529" type="curve" smooth="yes"/>
      <point x="472" y="1529"/>
      <point x="277" y="1360"/>
      <point x="264" y="1072" type="curve" smooth="yes"/>
      <point x="184.0" y="-2.27373675443e-13" type="line"/>
      <point x="523.0" y="-2.27373675443e-13" type="line"/>
      <point x="603" y="1039" type="line" smooth="yes"/>
      <point x="608" y="1140"/>
      <point x="646" y="1255"/>
      <point x="830" y="1255" type="curve" smooth="yes"/>
      <point x="915" y="1255"/>
      <point x="966" y="1233"/>
      <point x="1108" y="1176" type="curve"/>
    </contour>
  </outline>
</glyph>
<glyph name="currency" format="1">
  <advance width="1126"/>
  <unicode hex="00A4"/>
  <outline>
    <contour>
      <point x="174" y="405" type="line"/>
      <point x="245" y="476" type="line"/>
      <point x="307" y="444"/>
      <point x="419" y="424"/>
      <point x="563" y="424" type="curve" smooth="yes"/>
      <point x="707" y="424"/>
      <point x="819" y="444"/>
      <point x="881" y="476" type="curve"/>
      <point x="953" y="405" type="line"/>
      <point x="1027" y="479" type="line"/>
      <point x="955" y="550" type="line"/>
      <point x="991" y="606"/>
      <point x="1008" y="673"/>
      <point x="1008" y="742" type="curve" smooth="yes"/>
      <point x="1008" y="809"/>
      <point x="991" y="877"/>
      <point x="955" y="932" type="curve"/>
      <point x="1027" y="1004" type="line"/>
      <point x="953" y="1078" type="line"/>
      <point x="881" y="1007" type="line"/>
      <point x="819" y="1039"/>
      <point x="707" y="1059"/>
      <point x="563" y="1059" type="curve" smooth="yes"/>
      <point x="419" y="1059"/>
      <point x="307" y="1039"/>
      <point x="245" y="1007" type="curve"/>
      <point x="174" y="1078" type="line"/>
      <point x="99" y="1004" type="line"/>
      <point x="170" y="933" type="line"/>
      <point x="134" y="877"/>
      <point x="118" y="809"/>
      <point x="118" y="742" type="curve" smooth="yes"/>
      <point x="118" y="673"/>
      <point x="134" y="606"/>
      <point x="170" y="550" type="curve"/>
      <point x="99" y="479" type="line"/>
    </contour>
    <contour>
      <point x="563" y="564" type="curve" smooth="yes"/>
      <point x="380" y="564"/>
      <point x="277" y="651"/>
      <point x="277" y="742" type="curve" smooth="yes"/>
      <point x="277" y="831"/>
      <point x="362" y="919"/>
      <point x="563" y="919" type="curve" smooth="yes"/>
      <point x="764" y="919"/>
      <point x="849" y="830"/>
      <point x="849" y="741" type="curve" smooth="yes"/>
      <point x="849" y="652"/>
      <point x="763" y="564"/>
    </contour>
  </outline>
</glyph>
<glyph name="yen" format="1">
  <advance width="1316"/>
  <unicode hex="00A5"/>
  <outline>
    <contour>
      <point x="1056" y="189" type="line"/>
      <point x="1056" y="354" type="line"/>
      <point x="257" y="354" type="line"/>
      <point x="257" y="189" type="line"/>
    </contour>
    <contour>
      <point x="1056" y="468" type="line"/>
      <point x="1056" y="633" type="line"/>
      <point x="257" y="633" type="line"/>
      <point x="257" y="468" type="line"/>
    </contour>
    <component base="Y"/>
  </outline>
</glyph>
<glyph name="copyright" format="1">
  <advance width="1499"/>
  <unicode hex="00A9"/>
  <outline>
    <contour>
      <point x="760.0" y="287.0" type="curve" smooth="yes"/>
      <point x="1036.0" y="287.0"/>
      <point x="1085.0" y="422.0"/>
      <point x="1085.0" y="598.0" type="curve" smooth="yes"/>
      <point x="1085.0" y="632.0" type="line"/>
      <point x="969.0" y="632.0" type="line"/>
      <point x="969.0" y="571.0" type="line" smooth="yes"/>
      <point x="969.0" y="419.0"/>
      <point x="913.0" y="376.0"/>
      <point x="760.0" y="376.0" type="curve" smooth="yes"/>
      <point x="608.0" y="376.0"/>
      <point x="528.0" y="419.0"/>
      <point x="528.0" y="571.0" type="curve" smooth="yes"/>
      <point x="528.0" y="890.0" type="line" smooth="yes"/>
      <point x="528.0" y="1042.0"/>
      <point x="608.0" y="1091.0"/>
      <point x="759.0" y="1091.0" type="curve" smooth="yes"/>
      <point x="911.0" y="1091.0"/>
      <point x="969.0" y="1042.0"/>
      <point x="969.0" y="890.0" type="curve" smooth="yes"/>
      <point x="969.0" y="836.0" type="line"/>
      <point x="1085.0" y="836.0" type="line"/>
      <point x="1085.0" y="861.0" type="line" smooth="yes"/>
      <point x="1085.0" y="1043.0"/>
      <point x="1036.0" y="1182.0"/>
      <point x="759.0" y="1182.0" type="curve" smooth="yes"/>
      <point x="471.0" y="1182.0"/>
      <point x="408.0" y="1050.0"/>
      <point x="408.0" y="868.0" type="curve" smooth="yes"/>
      <point x="408.0" y="590.0" type="line" smooth="yes"/>
      <point x="408.0" y="411.0"/>
      <point x="473.0" y="287.0"/>
    </contour>
    <contour>
      <point x="751.0" y="82.0" type="curve" smooth="yes"/>
      <point x="387.0" y="82.0"/>
      <point x="123.0" y="357.0"/>
      <point x="123.0" y="722.0" type="curve" smooth="yes"/>
      <point x="123.0" y="1086.0"/>
      <point x="387.0" y="1361.0"/>
      <point x="751.0" y="1361.0" type="curve" smooth="yes"/>
      <point x="1117.0" y="1361.0"/>
      <point x="1379.0" y="1086.0"/>
      <point x="1379.0" y="722.0" type="curve" smooth="yes"/>
      <point x="1379.0" y="357.0"/>
      <point x="1117.0" y="82.0"/>
    </contour>
    <contour>
      <point x="749.0" y="-14.0" type="curve" smooth="yes"/>
      <point x="1165.0" y="-14.0"/>
      <point x="1485.0" y="303.0"/>
      <point x="1485.0" y="722.0" type="curve" smooth="yes"/>
      <point x="1485.0" y="1139.0"/>
      <point x="1165.0" y="1456.0"/>
      <point x="749.0" y="1456.0" type="curve" smooth="yes"/>
      <point x="336.0" y="1456.0"/>
      <point x="14.0" y="1139.0"/>
      <point x="14.0" y="722.0" type="curve" smooth="yes"/>
      <point x="14.0" y="303.0"/>
      <point x="336.0" y="-14.0"/>
    </contour>
  </outline>
</glyph>
<glyph name="ordfeminine" format="1">
  <advance width="864"/>
  <unicode hex="00AA"/>
  <outline>
    <contour>
      <point x="301" y="-9" type="curve" smooth="yes"/>
      <point x="399" y="-9"/>
      <point x="511" y="22"/>
      <point x="574" y="70" type="curve"/>
      <point x="574" y="0" type="line"/>
      <point x="759" y="0" type="line"/>
      <point x="702" y="241"/>
      <point x="877" y="746"/>
      <point x="459" y="746" type="curve" smooth="yes"/>
      <point x="238" y="746"/>
      <point x="158" y="620"/>
      <point x="156" y="475" type="curve"/>
      <point x="338" y="475" type="line"/>
      <point x="338" y="517"/>
      <point x="346" y="601"/>
      <point x="453" y="601" type="curve" smooth="yes"/>
      <point x="541" y="601"/>
      <point x="547" y="531"/>
      <point x="547" y="497" type="curve" smooth="yes"/>
      <point x="547" y="426" type="line"/>
      <point x="308" y="383"/>
      <point x="128" y="334"/>
      <point x="128" y="164" type="curve" smooth="yes"/>
      <point x="128" y="70"/>
      <point x="207" y="-9"/>
    </contour>
    <contour>
      <point x="401" y="143" type="curve" smooth="yes"/>
      <point x="338" y="143"/>
      <point x="314" y="171"/>
      <point x="314" y="202" type="curve" smooth="yes"/>
      <point x="314" y="262"/>
      <point x="467" y="307"/>
      <point x="547" y="333" type="curve"/>
      <point x="547" y="198" type="line"/>
      <point x="520" y="167"/>
      <point x="462" y="143"/>
    </contour>
  </outline>
</glyph>
<glyph name="registered" format="1">
  <advance width="1499.0"/>
  <unicode hex="00AE"/>
  <outline>
    <contour>
      <point x="453.0" y="319.0" type="line"/>
      <point x="584.0" y="319.0" type="line"/>
      <point x="584.0" y="652.0" type="line"/>
      <point x="843.0" y="652.0" type="line"/>
      <point x="1023.0" y="319.0" type="line"/>
      <point x="1151.0" y="319.0" type="line"/>
      <point x="967.0" y="666.0" type="line"/>
      <point x="1059.0" y="691.0"/>
      <point x="1119.0" y="760.0"/>
      <point x="1119.0" y="894.0" type="curve" smooth="yes"/>
      <point x="1119.0" y="908.0" type="line" smooth="yes"/>
      <point x="1115.0" y="1082.0"/>
      <point x="1013.0" y="1153.0"/>
      <point x="856.0" y="1153.0" type="curve" smooth="yes"/>
      <point x="453.0" y="1153.0" type="line"/>
    </contour>
    <contour>
      <point x="584.0" y="742.0" type="line"/>
      <point x="584.0" y="1062.0" type="line"/>
      <point x="860.0" y="1062.0" type="line" smooth="yes"/>
      <point x="978.0" y="1062.0"/>
      <point x="987.0" y="960.0"/>
      <point x="987.0" y="901.0" type="curve" smooth="yes"/>
      <point x="987.0" y="877.0" type="line"/>
      <point x="986.0" y="814.0"/>
      <point x="965.0" y="742.0"/>
      <point x="851.0" y="742.0" type="curve" smooth="yes"/>
    </contour>
    <contour>
      <point x="751.0" y="82.0" type="curve" smooth="yes"/>
      <point x="387.0" y="82.0"/>
      <point x="123.0" y="357.0"/>
      <point x="123.0" y="722.0" type="curve" smooth="yes"/>
      <point x="123.0" y="1086.0"/>
      <point x="387.0" y="1361.0"/>
      <point x="751.0" y="1361.0" type="curve" smooth="yes"/>
      <point x="1117.0" y="1361.0"/>
      <point x="1379.0" y="1086.0"/>
      <point x="1379.0" y="722.0" type="curve" smooth="yes"/>
      <point x="1379.0" y="357.0"/>
      <point x="1117.0" y="82.0"/>
    </contour>
    <contour>
      <point x="749.0" y="-14.0" type="curve" smooth="yes"/>
      <point x="1165.0" y="-14.0"/>
      <point x="1485.0" y="303.0"/>
      <point x="1485.0" y="722.0" type="curve" smooth="yes"/>
      <point x="1485.0" y="1139.0"/>
      <point x="1165.0" y="1456.0"/>
      <point x="749.0" y="1456.0" type="curve" smooth="yes"/>
      <point x="336.0" y="1456.0"/>
      <point x="14.0" y="1139.0"/>
      <point x="14.0" y="722.0" type="curve" smooth="yes"/>
      <point x="14.0" y="303.0"/>
      <point x="336.0" y="-14.0"/>
    </contour>
  </outline>
</glyph>
<glyph name="paragraph" format="1">
  <advance width="1210"/>
  <unicode hex="00B6"/>
  <outline>
    <contour>
      <point x="401.0" y="0.0" type="line"/>
      <point x="589.0" y="0.0" type="line"/>
      <point x="589" y="1332" type="line"/>
      <point x="832" y="1332" type="line"/>
      <point x="832.0" y="0.0" type="line"/>
      <point x="1020.0" y="0.0" type="line"/>
      <point x="1020.0" y="1489.0" type="line"/>
      <point x="407.0" y="1489.0" type="line" smooth="yes"/>
      <point x="213.0" y="1489.0"/>
      <point x="34" y="1397"/>
      <point x="34" y="1181" type="curve" smooth="yes"/>
      <point x="34" y="957"/>
      <point x="198" y="853"/>
      <point x="401" y="853" type="curve"/>
    </contour>
  </outline>
</glyph>
<glyph name="onequarter" format="1">
  <advance width="1957"/>
  <unicode hex="00BC"/>
  <outline>
    <contour>
      <point x="1598" y="-12" type="line"/>
      <point x="1782" y="-12" type="line"/>
      <point x="1782" y="202" type="line"/>
      <point x="1889" y="202" type="line"/>
      <point x="1889" y="333" type="line"/>
      <point x="1782" y="333" type="line"/>
      <point x="1782" y="815" type="line"/>
      <point x="1620" y="815" type="line"/>
      <point x="1056" y="324" type="line"/>
      <point x="1056" y="202" type="line"/>
      <point x="1598" y="202" type="line"/>
    </contour>
    <contour>
      <point x="164" y="536" type="line"/>
      <point x="348" y="536" type="line"/>
      <point x="348" y="1310" type="line"/>
      <point x="277" y="1310" type="line"/>
      <point x="218" y="1238"/>
      <point x="140" y="1186"/>
      <point x="57" y="1145" type="curve"/>
      <point x="57" y="1019" type="line"/>
      <point x="164" y="1019" type="line"/>
    </contour>
    <contour>
      <point x="351" y="0" type="line"/>
      <point x="499" y="0" type="line"/>
      <point x="1480" y="1518" type="line"/>
      <point x="1212" y="1518" type="line"/>
    </contour>
    <contour>
      <point x="1442" y="333" type="line"/>
      <point x="1598" y="485" type="line"/>
      <point x="1598" y="333" type="line"/>
    </contour>
  </outline>
</glyph>
<glyph name="threequarters" format="1">
  <advance width="1982"/>
  <unicode hex="00BE"/>
  <outline>
    <contour>
      <point x="113" y="774" type="line"/>
      <point x="113" y="631"/>
      <point x="190" y="536"/>
      <point x="338" y="536" type="curve" smooth="yes"/>
      <point x="481" y="536"/>
      <point x="565" y="621"/>
      <point x="565" y="762" type="curve" smooth="yes"/>
      <point x="565" y="841"/>
      <point x="527" y="894"/>
      <point x="456" y="923" type="curve"/>
      <point x="528" y="952"/>
      <point x="565" y="1005"/>
      <point x="565" y="1084" type="curve" smooth="yes"/>
      <point x="565" y="1226"/>
      <point x="480" y="1310"/>
      <point x="338" y="1310" type="curve" smooth="yes"/>
      <point x="190" y="1310"/>
      <point x="113" y="1214"/>
      <point x="113" y="1072" type="curve"/>
      <point x="296" y="1072" type="line"/>
      <point x="296" y="1103"/>
      <point x="291" y="1180"/>
      <point x="338" y="1180" type="curve" smooth="yes"/>
      <point x="384" y="1180"/>
      <point x="381" y="1116"/>
      <point x="381" y="1084" type="curve" smooth="yes"/>
      <point x="381" y="1007"/>
      <point x="352" y="989"/>
      <point x="273" y="989" type="curve"/>
      <point x="273" y="858" type="line"/>
      <point x="352" y="858"/>
      <point x="381" y="840"/>
      <point x="381" y="762" type="curve" smooth="yes"/>
      <point x="381" y="731"/>
      <point x="384" y="667"/>
      <point x="338" y="667" type="curve" smooth="yes"/>
      <point x="291" y="667"/>
      <point x="296" y="742"/>
      <point x="296" y="774" type="curve"/>
    </contour>
    <contour>
      <point x="1085" y="202" type="line"/>
      <point x="1568" y="202" type="line"/>
      <point x="1568" y="-12" type="line"/>
      <point x="1751" y="-12" type="line"/>
      <point x="1751" y="202" type="line"/>
      <point x="1859" y="202" type="line"/>
      <point x="1859" y="333" type="line"/>
      <point x="1751" y="333" type="line"/>
      <point x="1751" y="815" type="line"/>
      <point x="1590" y="815" type="line"/>
      <point x="1085" y="324" type="line"/>
    </contour>
    <contour>
      <point x="1429" y="333" type="line"/>
      <point x="1568" y="485" type="line"/>
      <point x="1568" y="333" type="line"/>
    </contour>
    <contour>
      <point x="486" y="0" type="line"/>
      <point x="634" y="0" type="line"/>
      <point x="1495" y="1518" type="line"/>
      <point x="1227" y="1518" type="line"/>
    </contour>
  </outline>
</glyph>
<glyph name="Aacute" format="1">
  <advance width="1175"/>
  <unicode hex="00C1"/>
  <outline>
    <contour>
      <point x="53" y="0" type="line"/>
      <point x="400" y="0" type="line"/>
      <point x="467" y="319" type="line"/>
      <point x="825" y="319" type="line"/>
      <point x="892" y="0" type="line"/>
      <point x="1241" y="0" type="line"/>
      <point x="909" y="1490" type="line"/>
      <point x="386" y="1490" type="line"/>
    </contour>
    <contour>
      <point x="389" y="1563" type="line"/>
      <point x="557" y="1563" type="line"/>
      <point x="787" y="1928" type="line"/>
      <point x="501" y="1928" type="line"/>
    </contour>
    <contour>
      <point x="501" y="504" type="line"/>
      <point x="649" y="1280" type="line"/>
      <point x="789" y="504" type="line"/>
    </contour>
  </outline>
</glyph>
<glyph name="Atilde" format="1">
  <advance width="1175"/>
  <unicode hex="00C3"/>
  <outline>
    <contour>
      <point x="385" y="1593" type="line"/>
      <point x="385" y="1616"/>
      <point x="383" y="1645"/>
      <point x="426" y="1645" type="curve" smooth="yes"/>
      <point x="548" y="1645"/>
      <point x="712" y="1584"/>
      <point x="800" y="1584" type="curve" smooth="yes"/>
      <point x="919" y="1584"/>
      <point x="929" y="1742"/>
      <point x="929" y="1831" type="curve"/>
      <point x="800" y="1831" type="line"/>
      <point x="800" y="1811"/>
      <point x="800" y="1793"/>
      <point x="771" y="1793" type="curve" smooth="yes"/>
      <point x="716" y="1793"/>
      <point x="553" y="1841"/>
      <point x="400" y="1841" type="curve" smooth="yes"/>
      <point x="267" y="1841"/>
      <point x="247" y="1719"/>
      <point x="247" y="1593" type="curve"/>
    </contour>
    <contour>
      <point x="53" y="0" type="line"/>
      <point x="400" y="0" type="line"/>
      <point x="467" y="319" type="line"/>
      <point x="825" y="319" type="line"/>
      <point x="892" y="0" type="line"/>
      <point x="1241" y="0" type="line"/>
      <point x="909" y="1490" type="line"/>
      <point x="386" y="1490" type="line"/>
    </contour>
    <contour>
      <point x="501" y="504" type="line"/>
      <point x="649" y="1280" type="line"/>
      <point x="789" y="504" type="line"/>
    </contour>
  </outline>
</glyph>
<glyph name="Aring" format="1">
  <advance width="1175"/>
  <unicode hex="00C5"/>
  <outline>
    <contour>
      <point x="53" y="0" type="line"/>
      <point x="400" y="0" type="line"/>
      <point x="467" y="319" type="line"/>
      <point x="825" y="319" type="line"/>
      <point x="892" y="0" type="line"/>
      <point x="1241" y="0" type="line"/>
      <point x="909" y="1490" type="line"/>
      <point x="386" y="1490" type="line"/>
    </contour>
    <contour>
      <point x="588" y="1700" type="curve" smooth="yes"/>
      <point x="538" y="1700"/>
      <point x="521" y="1758"/>
      <point x="521" y="1799" type="curve" smooth="yes"/>
      <point x="521" y="1839"/>
      <point x="539" y="1895"/>
      <point x="588" y="1895" type="curve" smooth="yes"/>
      <point x="636" y="1895"/>
      <point x="652" y="1835"/>
      <point x="652" y="1797" type="curve" smooth="yes"/>
      <point x="652" y="1758"/>
      <point x="636" y="1700"/>
    </contour>
    <contour>
      <point x="588" y="1600" type="curve" smooth="yes"/>
      <point x="707" y="1600"/>
      <point x="797" y="1675"/>
      <point x="797" y="1798" type="curve" smooth="yes"/>
      <point x="797" y="1920"/>
      <point x="706" y="1995"/>
      <point x="588" y="1995" type="curve" smooth="yes"/>
      <point x="469" y="1995"/>
      <point x="378" y="1921"/>
      <point x="378" y="1798" type="curve" smooth="yes"/>
      <point x="378" y="1675"/>
      <point x="469" y="1600"/>
    </contour>
    <contour>
      <point x="501" y="504" type="line"/>
      <point x="649" y="1280" type="line"/>
      <point x="789" y="504" type="line"/>
    </contour>
  </outline>
</glyph>
<glyph name="AE" format="1">
  <advance width="1925"/>
  <unicode hex="00C6"/>
  <outline>
    <contour>
      <point x="433" y="0" type="line"/>
      <point x="514" y="280" type="line"/>
      <point x="881" y="280" type="line"/>
      <point x="881" y="0" type="line"/>
      <point x="1811" y="0" type="line"/>
      <point x="1811" y="261" type="line"/>
      <point x="1220" y="261" type="line"/>
      <point x="1220" y="636" type="line"/>
      <point x="1726" y="636" type="line"/>
      <point x="1726" y="877" type="line"/>
      <point x="1220" y="877" type="line"/>
      <point x="1220" y="1228" type="line"/>
      <point x="1800" y="1228" type="line"/>
      <point x="1800" y="1490" type="line"/>
      <point x="540" y="1490" type="line"/>
      <point x="76" y="0" type="line"/>
    </contour>
    <contour>
      <point x="578" y="503" type="line"/>
      <point x="792" y="1228" type="line"/>
      <point x="881" y="1228" type="line"/>
      <point x="881" y="503" type="line"/>
    </contour>
  </outline>
</glyph>
<glyph name="Ccedilla" format="1">
  <advance width="1295"/>
  <unicode hex="00C7"/>
  <outline>
    <contour>
      <point x="462" y="-464" type="line"/>
      <point x="575" y="-464"/>
      <point x="833" y="-464"/>
      <point x="833" y="-300" type="curve" smooth="yes"/>
      <point x="833" y="-206"/>
      <point x="724" y="-142"/>
      <point x="650" y="-107" type="curve"/>
      <point x="650" y="0" type="line"/>
      <point x="509" y="0" type="line"/>
      <point x="509" y="-200" type="line"/>
      <point x="545" y="-213"/>
      <point x="645" y="-246"/>
      <point x="645" y="-296" type="curve" smooth="yes"/>
      <point x="645" y="-341"/>
      <point x="487" y="-331"/>
      <point x="462" y="-331" type="curve"/>
    </contour>
    <contour>
      <point x="910" y="883" type="line"/>
      <point x="1237" y="883" type="line"/>
      <point x="1237" y="1007" type="line" smooth="yes"/>
      <point x="1237" y="1302"/>
      <point x="1187" y="1518"/>
      <point x="748" y="1518" type="curve" smooth="yes"/>
      <point x="640" y="1518" type="line" smooth="yes"/>
      <point x="201" y="1518"/>
      <point x="131" y="1302"/>
      <point x="131" y="1007" type="curve" smooth="yes"/>
      <point x="131" y="473" type="line" smooth="yes"/>
      <point x="131" y="186"/>
      <point x="204" y="-29"/>
      <point x="640" y="-29" type="curve" smooth="yes"/>
      <point x="748" y="-29" type="line" smooth="yes"/>
      <point x="1184" y="-29"/>
      <point x="1237" y="186"/>
      <point x="1237" y="473" type="curve" smooth="yes"/>
      <point x="1237" y="606" type="line"/>
      <point x="910" y="606" type="line"/>
      <point x="910" y="404" type="line" smooth="yes"/>
      <point x="910" y="286"/>
      <point x="903" y="237"/>
      <point x="693" y="237" type="curve" smooth="yes"/>
      <point x="486" y="237"/>
      <point x="469" y="285"/>
      <point x="469" y="404" type="curve" smooth="yes"/>
      <point x="469" y="1082" type="line" smooth="yes"/>
      <point x="469" y="1200"/>
      <point x="488" y="1252"/>
      <point x="693" y="1252" type="curve" smooth="yes"/>
      <point x="900" y="1252"/>
      <point x="910" y="1194"/>
      <point x="910" y="1082" type="curve" smooth="yes"/>
    </contour>
  </outline>
</glyph>
<glyph name="Ograve" format="1">
  <advance width="1354"/>
  <unicode hex="00D2"/>
  <outline>
    <contour>
      <point x="640" y="-29" type="curve" smooth="yes"/>
      <point x="745" y="-29" type="line" smooth="yes"/>
      <point x="1181" y="-29"/>
      <point x="1255" y="203"/>
      <point x="1255" y="490" type="curve" smooth="yes"/>
      <point x="1255" y="991" type="line" smooth="yes"/>
      <point x="1255" y="1286"/>
      <point x="1184" y="1518"/>
      <point x="745" y="1518" type="curve" smooth="yes"/>
      <point x="640" y="1518" type="line" smooth="yes"/>
      <point x="201" y="1518"/>
      <point x="131" y="1302"/>
      <point x="131" y="1007" type="curve" smooth="yes"/>
      <point x="131" y="473" type="line" smooth="yes"/>
      <point x="131" y="186"/>
      <point x="204" y="-29"/>
    </contour>
    <contour>
      <point x="693" y="237" type="curve" smooth="yes"/>
      <point x="486" y="237"/>
      <point x="469" y="285"/>
      <point x="469" y="404" type="curve" smooth="yes"/>
      <point x="469" y="1082" type="line" smooth="yes"/>
      <point x="469" y="1200"/>
      <point x="488" y="1252"/>
      <point x="693" y="1252" type="curve" smooth="yes"/>
      <point x="900" y="1252"/>
      <point x="917" y="1194"/>
      <point x="917" y="1082" type="curve" smooth="yes"/>
      <point x="917" y="404" type="line" smooth="yes"/>
      <point x="917" y="286"/>
      <point x="903" y="237"/>
    </contour>
    <contour>
      <point x="707" y="1563" type="line"/>
      <point x="877" y="1563" type="line"/>
      <point x="764" y="1928" type="line"/>
      <point x="478" y="1928" type="line"/>
    </contour>
  </outline>
</glyph>
<glyph name="Udieresis" format="1">
  <advance width="1373"/>
  <unicode hex="00DC"/>
  <outline>
    <contour>
      <point x="286" y="1645" type="line"/>
      <point x="575" y="1645" type="line"/>
      <point x="575" y="1900" type="line"/>
      <point x="286" y="1900" type="line"/>
    </contour>
    <contour>
      <point x="798" y="1645" type="line"/>
      <point x="1088" y="1645" type="line"/>
      <point x="1088" y="1900" type="line"/>
      <point x="798" y="1900" type="line"/>
    </contour>
    <contour>
      <point x="925" y="1490" type="line"/>
      <point x="925" y="404" type="line" smooth="yes"/>
      <point x="925" y="286"/>
      <point x="911" y="237"/>
      <point x="701" y="237" type="curve" smooth="yes"/>
      <point x="494" y="237"/>
      <point x="477" y="285"/>
      <point x="477" y="404" type="curve" smooth="yes"/>
      <point x="477" y="1490" type="line"/>
      <point x="139" y="1490" type="line"/>
      <point x="139" y="473" type="line" smooth="yes"/>
      <point x="139" y="186"/>
      <point x="212" y="-29"/>
      <point x="648" y="-29" type="curve" smooth="yes"/>
      <point x="753" y="-29" type="line" smooth="yes"/>
      <point x="1189" y="-29"/>
      <point x="1264" y="203"/>
      <point x="1264" y="490" type="curve" smooth="yes"/>
      <point x="1264" y="1490" type="line"/>
    </contour>
  </outline>
</glyph>
<glyph name="Thorn" format="1">
  <advance width="949"/>
  <unicode hex="00DE"/>
  <outline>
    <contour>
      <point x="80" y="0" type="line"/>
      <point x="393" y="0" type="line"/>
      <point x="393" y="442" type="line"/>
      <point x="760" y="446"/>
      <point x="918" y="535"/>
      <point x="918" y="872" type="curve" smooth="yes"/>
      <point x="918" y="1135"/>
      <point x="815" y="1294"/>
      <point x="478" y="1294" type="curve" smooth="yes"/>
      <point x="401" y="1294" type="line"/>
      <point x="401" y="1490" type="line"/>
      <point x="80" y="1490" type="line"/>
    </contour>
    <contour>
      <point x="402" y="655" type="curve"/>
      <point x="402" y="1080" type="line"/>
      <point x="631" y="1080"/>
      <point x="633" y="996"/>
      <point x="633" y="878" type="curve" smooth="yes"/>
      <point x="633" y="727"/>
      <point x="636" y="655"/>
    </contour>
  </outline>
</glyph>
<glyph name="aring" format="1">
  <advance width="1174"/>
  <unicode hex="00E5"/>
  <outline>
    <contour>
      <point x="730" y="253" type="line"/>
      <point x="679" y="196"/>
      <point x="599" y="181"/>
      <point x="560" y="177" type="curve"/>
      <point x="554" y="176"/>
      <point x="548" y="176"/>
      <point x="542" y="176" type="curve" smooth="yes"/>
      <point x="465" y="176"/>
      <point x="427" y="223"/>
      <point x="420" y="282" type="curve" smooth="yes"/>
      <point x="419" y="288"/>
      <point x="419" y="294"/>
      <point x="419" y="301" type="curve" smooth="yes"/>
      <point x="419" y="344"/>
      <point x="437" y="404"/>
      <point x="528" y="430" type="curve" smooth="yes"/>
      <point x="599" y="450"/>
      <point x="694" y="478"/>
      <point x="730" y="508" type="curve"/>
    </contour>
    <contour>
      <point x="986" y="-17" type="curve" smooth="yes"/>
      <point x="1017" y="-17"/>
      <point x="1054" y="-14"/>
      <point x="1148" y="0" type="curve"/>
      <point x="1148" y="181" type="line"/>
      <point x="1084" y="181"/>
      <point x="1039" y="186"/>
      <point x="1039" y="278" type="curve" smooth="yes"/>
      <point x="1039" y="739" type="line" smooth="yes"/>
      <point x="1039" y="962"/>
      <point x="923" y="1104"/>
      <point x="584" y="1104" type="curve" smooth="yes"/>
      <point x="282" y="1104"/>
      <point x="151" y="952"/>
      <point x="151" y="745" type="curve" smooth="yes"/>
      <point x="151" y="720" type="line"/>
      <point x="439" y="720" type="line"/>
      <point x="439" y="759" type="line" smooth="yes"/>
      <point x="439" y="842"/>
      <point x="475" y="895"/>
      <point x="578" y="895" type="curve" smooth="yes"/>
      <point x="678" y="895"/>
      <point x="729" y="862"/>
      <point x="729" y="777" type="curve" smooth="yes"/>
      <point x="729" y="629"/>
      <point x="638" y="639"/>
      <point x="436" y="577" type="curve" smooth="yes"/>
      <point x="147" y="489"/>
      <point x="115" y="419"/>
      <point x="122" y="262" type="curve" smooth="yes"/>
      <point x="130" y="77"/>
      <point x="257" y="-24"/>
      <point x="423" y="-24" type="curve" smooth="yes"/>
      <point x="562" y="-24"/>
      <point x="691" y="56"/>
      <point x="754" y="134" type="curve"/>
      <point x="796" y="53"/>
      <point x="833" y="-17"/>
    </contour>
    <contour>
      <point x="589" y="1277" type="curve" smooth="yes"/>
      <point x="527" y="1277"/>
      <point x="485" y="1301"/>
      <point x="485" y="1389" type="curve" smooth="yes"/>
      <point x="485" y="1476"/>
      <point x="527" y="1499"/>
      <point x="588" y="1499" type="curve" smooth="yes"/>
      <point x="651" y="1499"/>
      <point x="693" y="1475"/>
      <point x="693" y="1387" type="curve" smooth="yes"/>
      <point x="693" y="1300"/>
      <point x="651" y="1277"/>
    </contour>
    <contour>
      <point x="589" y="1190" type="curve" smooth="yes"/>
      <point x="728" y="1190"/>
      <point x="799" y="1265"/>
      <point x="799" y="1388" type="curve" smooth="yes"/>
      <point x="799" y="1510"/>
      <point x="727" y="1585"/>
      <point x="589" y="1585" type="curve" smooth="yes"/>
      <point x="450" y="1585"/>
      <point x="379" y="1511"/>
      <point x="379" y="1388" type="curve" smooth="yes"/>
      <point x="379" y="1265"/>
      <point x="450" y="1190"/>
    </contour>
  </outline>
</glyph>
<glyph name="eacute" format="1">
  <advance width="1148"/>
  <unicode hex="00E9"/>
  <outline>
    <contour>
      <point x="591" y="-24" type="curve" smooth="yes"/>
      <point x="881" y="-24"/>
      <point x="1071" y="39"/>
      <point x="1071" y="319" type="curve" smooth="yes"/>
      <point x="1071" y="395" type="line"/>
      <point x="768" y="395" type="line"/>
      <point x="768" y="319" type="line" smooth="yes"/>
      <point x="768" y="212"/>
      <point x="701" y="186"/>
      <point x="598" y="186" type="curve" smooth="yes"/>
      <point x="499" y="186"/>
      <point x="432" y="211"/>
      <point x="432" y="318" type="curve" smooth="yes"/>
      <point x="432" y="515" type="line"/>
      <point x="1071" y="515" type="line"/>
      <point x="1071" y="740" type="line" smooth="yes"/>
      <point x="1071" y="962"/>
      <point x="937" y="1104"/>
      <point x="589" y="1104" type="curve" smooth="yes"/>
      <point x="320" y="1104"/>
      <point x="122" y="987"/>
      <point x="122" y="760" type="curve" smooth="yes"/>
      <point x="122" y="319" type="line" smooth="yes"/>
      <point x="122" y="35"/>
      <point x="351" y="-24"/>
    </contour>
    <contour>
      <point x="432" y="664" type="line"/>
      <point x="432" y="760" type="line" smooth="yes"/>
      <point x="432" y="866"/>
      <point x="507" y="894"/>
      <point x="598" y="894" type="curve" smooth="yes"/>
      <point x="692" y="894"/>
      <point x="768" y="875"/>
      <point x="768" y="760" type="curve" smooth="yes"/>
      <point x="768" y="664" type="line"/>
    </contour>
    <contour>
      <point x="496" y="1189" type="line"/>
      <point x="664" y="1189" type="line"/>
      <point x="894" y="1554" type="line"/>
      <point x="608" y="1554" type="line"/>
    </contour>
  </outline>
</glyph>
<glyph name="igrave" format="1">
  <advance width="440"/>
  <unicode hex="00EC"/>
  <outline>
    <contour>
      <point x="103" y="0" type="line"/>
      <point x="381" y="0" type="line"/>
      <point x="381" y="1080" type="line"/>
      <point x="103" y="1080" type="line"/>
    </contour>
    <contour>
      <point x="250" y="1153" type="line"/>
      <point x="420" y="1153" type="line"/>
      <point x="307" y="1518" type="line"/>
      <point x="21" y="1518" type="line"/>
    </contour>
  </outline>
</glyph>
<glyph name="icircumflex" format="1">
  <advance width="440"/>
  <unicode hex="00EE"/>
  <outline>
    <contour>
      <point x="103" y="0" type="line"/>
      <point x="381" y="0" type="line"/>
      <point x="381" y="1080" type="line"/>
      <point x="103" y="1080" type="line"/>
    </contour>
    <contour>
      <point x="-46" y="1189" type="line"/>
      <point x="199" y="1189" type="line"/>
      <point x="308" y="1356" type="line"/>
      <point x="419" y="1189" type="line"/>
      <point x="666" y="1189" type="line"/>
      <point x="496" y="1525" type="line"/>
      <point x="120" y="1525" type="line"/>
    </contour>
  </outline>
</glyph>
<glyph name="eth" format="1">
  <advance width="903"/>
  <unicode hex="00F0"/>
  <outline>
    <contour>
      <point x="72" y="282" type="line" smooth="yes"/>
      <point x="72" y="97"/>
      <point x="224" y="-24"/>
      <point x="440" y="-24" type="curve" smooth="yes"/>
      <point x="662" y="-24"/>
      <point x="822" y="97"/>
      <point x="822" y="282" type="curve" smooth="yes"/>
      <point x="822" y="983" type="line" smooth="yes"/>
      <point x="822" y="1082"/>
      <point x="810" y="1173"/>
      <point x="781" y="1252" type="curve"/>
      <point x="892" y="1308" type="line"/>
      <point x="837" y="1424" type="line"/>
      <point x="719" y="1364" type="line"/>
      <point x="641" y="1461"/>
      <point x="486" y="1518"/>
      <point x="218" y="1518" type="curve"/>
      <point x="179" y="1299" type="line"/>
      <point x="287" y="1299"/>
      <point x="357" y="1282"/>
      <point x="430" y="1242" type="curve"/>
      <point x="266" y="1177" type="line"/>
      <point x="320" y="1061" type="line"/>
      <point x="526" y="1125" type="line"/>
      <point x="541" y="1078"/>
      <point x="544" y="1020"/>
      <point x="544" y="950" type="curve"/>
      <point x="470" y="982"/>
      <point x="379" y="998"/>
      <point x="314" y="998" type="curve" smooth="yes"/>
      <point x="193" y="998"/>
      <point x="72" y="903"/>
      <point x="72" y="738" type="curve" smooth="yes"/>
    </contour>
    <contour>
      <point x="543" y="281" type="line" smooth="yes"/>
      <point x="543" y="243"/>
      <point x="529" y="195"/>
      <point x="440" y="195" type="curve" smooth="yes"/>
      <point x="355" y="195"/>
      <point x="349" y="245"/>
      <point x="349" y="281" type="curve" smooth="yes"/>
      <point x="349" y="718" type="line" smooth="yes"/>
      <point x="349" y="760"/>
      <point x="397" y="780"/>
      <point x="446" y="780" type="curve" smooth="yes"/>
      <point x="495" y="780"/>
      <point x="543" y="760"/>
      <point x="543" y="723" type="curve" smooth="yes"/>
    </contour>
  </outline>
</glyph>
<glyph name="ntilde" format="1">
  <advance width="990"/>
  <unicode hex="00F1"/>
  <outline>
    <contour>
      <point x="131" y="0" type="line"/>
      <point x="441" y="0" type="line"/>
      <point x="441" y="814" type="line" smooth="yes"/>
      <point x="441" y="851"/>
      <point x="511" y="894"/>
      <point x="572" y="894" type="curve" smooth="yes"/>
      <point x="621" y="894"/>
      <point x="664" y="867"/>
      <point x="664" y="790" type="curve" smooth="yes"/>
      <point x="664" y="0" type="line"/>
      <point x="975" y="0" type="line"/>
      <point x="975" y="854" type="line" smooth="yes"/>
      <point x="975" y="991"/>
      <point x="880" y="1104"/>
      <point x="719" y="1104" type="curve" smooth="yes"/>
      <point x="573" y="1104"/>
      <point x="499" y="1050"/>
      <point x="441" y="1004" type="curve"/>
      <point x="441" y="1080" type="line"/>
      <point x="131" y="1080" type="line"/>
    </contour>
    <contour>
      <point x="708" y="1174" type="curve" smooth="yes"/>
      <point x="827" y="1174"/>
      <point x="837" y="1332"/>
      <point x="837" y="1421" type="curve"/>
      <point x="708" y="1421" type="line"/>
      <point x="708" y="1401"/>
      <point x="708" y="1383"/>
      <point x="679" y="1383" type="curve" smooth="yes"/>
      <point x="624" y="1383"/>
      <point x="461" y="1431"/>
      <point x="308" y="1431" type="curve" smooth="yes"/>
      <point x="175" y="1431"/>
      <point x="155" y="1309"/>
      <point x="155" y="1183" type="curve"/>
      <point x="293" y="1183" type="line"/>
      <point x="293" y="1206"/>
      <point x="291" y="1235"/>
      <point x="334" y="1235" type="curve" smooth="yes"/>
      <point x="456" y="1235"/>
      <point x="620" y="1174"/>
    </contour>
  </outline>
</glyph>
<glyph name="ocircumflex" format="1">
  <advance width="959"/>
  <unicode hex="00F4"/>
  <outline>
    <contour>
      <point x="112" y="281" type="line" smooth="yes"/>
      <point x="112" y="96"/>
      <point x="310" y="-24"/>
      <point x="535" y="-24" type="curve" smooth="yes"/>
      <point x="825" y="-24"/>
      <point x="964" y="96"/>
      <point x="964" y="281" type="curve" smooth="yes"/>
      <point x="964" y="740" type="line" smooth="yes"/>
      <point x="964" y="962"/>
      <point x="880" y="1104"/>
      <point x="532" y="1104" type="curve" smooth="yes"/>
      <point x="248" y="1104"/>
      <point x="112" y="961"/>
      <point x="112" y="740" type="curve" smooth="yes"/>
    </contour>
    <contour>
      <point x="654" y="277" type="line" smooth="yes"/>
      <point x="654" y="239"/>
      <point x="639" y="186"/>
      <point x="536" y="186" type="curve" smooth="yes"/>
      <point x="437" y="186"/>
      <point x="422" y="241"/>
      <point x="422" y="277" type="curve" smooth="yes"/>
      <point x="422" y="812" type="line" smooth="yes"/>
      <point x="422" y="847"/>
      <point x="445" y="894"/>
      <point x="536" y="894" type="curve" smooth="yes"/>
      <point x="630" y="894"/>
      <point x="654" y="849"/>
      <point x="654" y="812" type="curve" smooth="yes"/>
    </contour>
    <contour>
      <point x="115" y="1189" type="line"/>
      <point x="360" y="1189" type="line"/>
      <point x="469" y="1356" type="line"/>
      <point x="580" y="1189" type="line"/>
      <point x="827" y="1189" type="line"/>
      <point x="657" y="1525" type="line"/>
      <point x="281" y="1525" type="line"/>
    </contour>
  </outline>
</glyph>
<glyph name="otilde" format="1">
  <advance width="959"/>
  <unicode hex="00F5"/>
  <outline>
    <contour>
      <point x="692" y="1174" type="curve" smooth="yes"/>
      <point x="811" y="1174"/>
      <point x="821" y="1332"/>
      <point x="821" y="1421" type="curve"/>
      <point x="692" y="1421" type="line"/>
      <point x="692" y="1401"/>
      <point x="692" y="1383"/>
      <point x="663" y="1383" type="curve" smooth="yes"/>
      <point x="608" y="1383"/>
      <point x="445" y="1431"/>
      <point x="292" y="1431" type="curve" smooth="yes"/>
      <point x="159" y="1431"/>
      <point x="139" y="1309"/>
      <point x="139" y="1183" type="curve"/>
      <point x="277" y="1183" type="line"/>
      <point x="277" y="1206"/>
      <point x="275" y="1235"/>
      <point x="318" y="1235" type="curve" smooth="yes"/>
      <point x="440" y="1235"/>
      <point x="604" y="1174"/>
    </contour>
    <contour>
      <point x="536" y="186" type="curve" smooth="yes"/>
      <point x="437" y="186"/>
      <point x="422" y="241"/>
      <point x="422" y="277" type="curve" smooth="yes"/>
      <point x="422" y="812" type="line" smooth="yes"/>
      <point x="422" y="847"/>
      <point x="445" y="894"/>
      <point x="536" y="894" type="curve" smooth="yes"/>
      <point x="630" y="894"/>
      <point x="654" y="849"/>
      <point x="654" y="812" type="curve" smooth="yes"/>
      <point x="654" y="277" type="line" smooth="yes"/>
      <point x="654" y="239"/>
      <point x="639" y="186"/>
    </contour>
    <contour>
      <point x="535" y="-24" type="curve" smooth="yes"/>
      <point x="825" y="-24"/>
      <point x="964" y="96"/>
      <point x="964" y="281" type="curve" smooth="yes"/>
      <point x="964" y="740" type="line" smooth="yes"/>
      <point x="964" y="962"/>
      <point x="880" y="1104"/>
      <point x="532" y="1104" type="curve" smooth="yes"/>
      <point x="248" y="1104"/>
      <point x="112" y="961"/>
      <point x="112" y="740" type="curve" smooth="yes"/>
      <point x="112" y="281" type="line" smooth="yes"/>
      <point x="112" y="96"/>
      <point x="310" y="-24"/>
    </contour>
  </outline>
</glyph>
<glyph name="oslash" format="1">
  <advance width="909"/>
  <unicode hex="00F8"/>
  <outline>
    <contour>
      <point x="172" y="-193" type="line"/>
      <point x="235" y="-209" type="line"/>
      <point x="293" y="-7" type="line"/>
      <point x="329" y="-18"/>
      <point x="380" y="-23"/>
      <point x="450" y="-23" type="curve" smooth="yes"/>
      <point x="681" y="-23"/>
      <point x="841" y="96"/>
      <point x="841" y="281" type="curve" smooth="yes"/>
      <point x="841" y="740" type="line" smooth="yes"/>
      <point x="841" y="886"/>
      <point x="797" y="999"/>
      <point x="697" y="1058" type="curve"/>
      <point x="760" y="1278" type="line"/>
      <point x="697" y="1294" type="line"/>
      <point x="636" y="1085" type="line"/>
      <point x="597" y="1097"/>
      <point x="541" y="1104"/>
      <point x="450" y="1104" type="curve" smooth="yes"/>
      <point x="166" y="1104"/>
      <point x="69" y="961"/>
      <point x="69" y="740" type="curve" smooth="yes"/>
      <point x="69" y="281" type="line" smooth="yes"/>
      <point x="69" y="160"/>
      <point x="136" y="67"/>
      <point x="233" y="17" type="curve"/>
    </contour>
    <contour>
      <point x="565" y="286" type="line" smooth="yes"/>
      <point x="565" y="248"/>
      <point x="553" y="195"/>
      <point x="450" y="195" type="curve" smooth="yes"/>
      <point x="350" y="195"/>
      <point x="348" y="250"/>
      <point x="348" y="286" type="curve" smooth="yes"/>
      <point x="348" y="798" type="line" smooth="yes"/>
      <point x="348" y="833"/>
      <point x="359" y="880"/>
      <point x="450" y="880" type="curve" smooth="yes"/>
      <point x="544" y="880"/>
      <point x="565" y="835"/>
      <point x="565" y="798" type="curve" smooth="yes"/>
    </contour>
  </outline>
</glyph>
<glyph name="udieresis" format="1">
  <advance width="1138"/>
  <unicode hex="00FC"/>
  <outline>
    <contour>
      <point x="1097" y="1080" type="line"/>
      <point x="787" y="1080" type="line"/>
      <point x="787" y="320" type="line" smooth="yes"/>
      <point x="787" y="215"/>
      <point x="670" y="186"/>
      <point x="609" y="186" type="curve" smooth="yes"/>
      <point x="545" y="186"/>
      <point x="445" y="201"/>
      <point x="445" y="317" type="curve" smooth="yes"/>
      <point x="445" y="1080" type="line"/>
      <point x="135" y="1080" type="line"/>
      <point x="135" y="276" type="line" smooth="yes"/>
      <point x="135" y="89"/>
      <point x="283" y="-24"/>
      <point x="465" y="-24" type="curve" smooth="yes"/>
      <point x="612" y="-24"/>
      <point x="749" y="49"/>
      <point x="787" y="136" type="curve"/>
      <point x="787" y="0" type="line"/>
      <point x="1097" y="0" type="line"/>
    </contour>
    <contour>
      <point x="176" y="1235" type="line"/>
      <point x="465" y="1235" type="line"/>
      <point x="465" y="1490" type="line"/>
      <point x="176" y="1490" type="line"/>
    </contour>
    <contour>
      <point x="688" y="1235" type="line"/>
      <point x="978" y="1235" type="line"/>
      <point x="978" y="1490" type="line"/>
      <point x="688" y="1490" type="line"/>
    </contour>
  </outline>
</glyph>
<glyph name="thorn" format="1">
  <advance width="903"/>
  <unicode hex="00FE"/>
  <outline>
    <contour>
      <point x="556" y="257" type="line" smooth="yes"/>
      <point x="556" y="222"/>
      <point x="551" y="179"/>
      <point x="487" y="179" type="curve" smooth="yes"/>
      <point x="433" y="179"/>
      <point x="385" y="225"/>
      <point x="361" y="246" type="curve"/>
      <point x="361" y="832" type="line"/>
      <point x="386" y="853"/>
      <point x="435" y="896"/>
      <point x="487" y="896" type="curve" smooth="yes"/>
      <point x="550" y="896"/>
      <point x="556" y="857"/>
      <point x="556" y="825" type="curve" smooth="yes"/>
    </contour>
    <contour>
      <point x="82" y="-307" type="line"/>
      <point x="361" y="-307" type="line"/>
      <point x="361" y="81" type="line"/>
      <point x="434" y="16"/>
      <point x="546" y="-24"/>
      <point x="619" y="-24" type="curve" smooth="yes"/>
      <point x="744" y="-24"/>
      <point x="833" y="87"/>
      <point x="833" y="207" type="curve" smooth="yes"/>
      <point x="833" y="870" type="line" smooth="yes"/>
      <point x="833" y="990"/>
      <point x="744" y="1105"/>
      <point x="619" y="1105" type="curve" smooth="yes"/>
      <point x="544" y="1105"/>
      <point x="434" y="1062"/>
      <point x="361" y="1007" type="curve"/>
      <point x="361" y="1490" type="line"/>
      <point x="82" y="1490" type="line"/>
    </contour>
  </outline>
</glyph>
<glyph name="amacron" format="1">
  <advance width="983"/>
  <unicode hex="0101"/>
  <outline>
    <contour>
      <point x="282" y="1206" type="line"/>
      <point x="702" y="1206" type="line"/>
      <point x="702" y="1365" type="line"/>
      <point x="282" y="1365" type="line"/>
    </contour>
    <contour>
      <point x="641" y="458" type="curve"/>
      <point x="641" y="233" type="line"/>
      <point x="433" y="136"/>
      <point x="387" y="222"/>
      <point x="387" y="317" type="curve" smooth="yes"/>
      <point x="387" y="410"/>
      <point x="424" y="431"/>
    </contour>
    <contour>
      <point x="742" y="0" type="line"/>
      <point x="950" y="0" type="line"/>
      <point x="950" y="287" type="line"/>
      <point x="950" y="800" type="line" smooth="yes"/>
      <point x="950" y="967"/>
      <point x="843" y="1105"/>
      <point x="560" y="1105" type="curve" smooth="yes"/>
      <point x="223" y="1105"/>
      <point x="114" y="966"/>
      <point x="114" y="719" type="curve"/>
      <point x="402" y="719" type="line"/>
      <point x="402" y="780" type="line" smooth="yes"/>
      <point x="402" y="833"/>
      <point x="412" y="894"/>
      <point x="528" y="894" type="curve" smooth="yes"/>
      <point x="613" y="894"/>
      <point x="640" y="852"/>
      <point x="640" y="780" type="curve" smooth="yes"/>
      <point x="640" y="636" type="line"/>
      <point x="215" y="594"/>
      <point x="106" y="548"/>
      <point x="106" y="282" type="curve" smooth="yes"/>
      <point x="106" y="97"/>
      <point x="213" y="-24"/>
      <point x="379" y="-24" type="curve" smooth="yes"/>
      <point x="518" y="-24"/>
      <point x="630" y="4"/>
      <point x="693" y="112" type="curve"/>
    </contour>
  </outline>
</glyph>
<glyph name="Aogonek" format="1">
  <advance width="1175"/>
  <unicode hex="0104"/>
  <outline>
    <contour>
      <point x="53" y="0" type="line"/>
      <point x="400" y="0" type="line"/>
      <point x="467" y="319" type="line"/>
      <point x="825" y="319" type="line"/>
      <point x="892" y="0" type="line"/>
      <point x="1241" y="0" type="line"/>
      <point x="909" y="1490" type="line"/>
      <point x="386" y="1490" type="line"/>
    </contour>
    <contour>
      <point x="1040" y="-429" type="curve"/>
      <point x="1057" y="-296" type="line"/>
      <point x="993" y="-296"/>
      <point x="898" y="-297"/>
      <point x="898" y="-199" type="curve" smooth="yes"/>
      <point x="898" y="-123"/>
      <point x="932" y="-58"/>
      <point x="957" y="13" type="curve"/>
      <point x="835" y="13" type="line"/>
      <point x="770" y="-49"/>
      <point x="710" y="-153"/>
      <point x="710" y="-244" type="curve" smooth="yes"/>
      <point x="710" y="-424"/>
      <point x="905" y="-432"/>
    </contour>
    <contour>
      <point x="501" y="504" type="line"/>
      <point x="649" y="1280" type="line"/>
      <point x="789" y="504" type="line"/>
    </contour>
  </outline>
</glyph>
<glyph name="Ccaron" format="1">
  <advance width="1295"/>
  <unicode hex="010C"/>
  <outline>
    <contour>
      <point x="640" y="-29" type="curve" smooth="yes"/>
      <point x="748" y="-29" type="line" smooth="yes"/>
      <point x="1184" y="-29"/>
      <point x="1237" y="186"/>
      <point x="1237" y="473" type="curve" smooth="yes"/>
      <point x="1237" y="606" type="line"/>
      <point x="910" y="606" type="line"/>
      <point x="910" y="404" type="line" smooth="yes"/>
      <point x="910" y="286"/>
      <point x="903" y="237"/>
      <point x="693" y="237" type="curve" smooth="yes"/>
      <point x="486" y="237"/>
      <point x="469" y="285"/>
      <point x="469" y="404" type="curve" smooth="yes"/>
      <point x="469" y="1082" type="line" smooth="yes"/>
      <point x="469" y="1200"/>
      <point x="488" y="1252"/>
      <point x="693" y="1252" type="curve" smooth="yes"/>
      <point x="900" y="1252"/>
      <point x="910" y="1194"/>
      <point x="910" y="1082" type="curve" smooth="yes"/>
      <point x="910" y="883" type="line"/>
      <point x="1237" y="883" type="line"/>
      <point x="1237" y="1007" type="line" smooth="yes"/>
      <point x="1237" y="1302"/>
      <point x="1187" y="1518"/>
      <point x="748" y="1518" type="curve" smooth="yes"/>
      <point x="640" y="1518" type="line" smooth="yes"/>
      <point x="201" y="1518"/>
      <point x="131" y="1302"/>
      <point x="131" y="1007" type="curve" smooth="yes"/>
      <point x="131" y="473" type="line" smooth="yes"/>
      <point x="131" y="186"/>
      <point x="204" y="-29"/>
    </contour>
    <contour>
      <point x="458" y="1556" type="line"/>
      <point x="834" y="1556" type="line"/>
      <point x="1004" y="1892" type="line"/>
      <point x="757" y="1892" type="line"/>
      <point x="645" y="1726" type="line"/>
      <point x="537" y="1892" type="line"/>
      <point x="291" y="1892" type="line"/>
    </contour>
  </outline>
</glyph>
<glyph name="Dcaron" format="1">
  <advance width="1207"/>
  <unicode hex="010E"/>
  <outline>
    <contour>
      <point x="414" y="1556" type="line"/>
      <point x="790" y="1556" type="line"/>
      <point x="960" y="1892" type="line"/>
      <point x="713" y="1892" type="line"/>
      <point x="601" y="1726" type="line"/>
      <point x="493" y="1892" type="line"/>
      <point x="247" y="1892" type="line"/>
    </contour>
    <contour>
      <point x="930" y="433" type="line" smooth="yes"/>
      <point x="930" y="315"/>
      <point x="919" y="266"/>
      <point x="709" y="266" type="curve" smooth="yes"/>
      <point x="501" y="266" type="line"/>
      <point x="501" y="1223" type="line"/>
      <point x="709" y="1223" type="line" smooth="yes"/>
      <point x="916" y="1223"/>
      <point x="930" y="1165"/>
      <point x="930" y="1053" type="curve" smooth="yes"/>
    </contour>
    <contour>
      <point x="758" y="0" type="line" smooth="yes"/>
      <point x="1194" y="0"/>
      <point x="1269" y="232"/>
      <point x="1269" y="519" type="curve" smooth="yes"/>
      <point x="1269" y="962" type="line" smooth="yes"/>
      <point x="1269" y="1257"/>
      <point x="1197" y="1490"/>
      <point x="758" y="1490" type="curve" smooth="yes"/>
      <point x="162" y="1490" type="line"/>
      <point x="162" y="0" type="line"/>
    </contour>
  </outline>
</glyph>
<glyph name="edotaccent" format="1">
  <advance width="916"/>
  <unicode hex="0117"/>
  <outline>
    <contour>
      <point x="535" y="-24" type="curve" smooth="yes"/>
      <point x="825" y="-24"/>
      <point x="951" y="96"/>
      <point x="951" y="281" type="curve" smooth="yes"/>
      <point x="951" y="409" type="line"/>
      <point x="649" y="409" type="line"/>
      <point x="649" y="277" type="line" smooth="yes"/>
      <point x="649" y="239"/>
      <point x="639" y="186"/>
      <point x="536" y="186" type="curve" smooth="yes"/>
      <point x="437" y="186"/>
      <point x="422" y="241"/>
      <point x="422" y="277" type="curve" smooth="yes"/>
      <point x="422" y="515" type="line"/>
      <point x="952" y="515" type="line"/>
      <point x="952" y="664" type="line"/>
      <point x="951" y="664" type="line"/>
      <point x="951" y="740" type="line" smooth="yes"/>
      <point x="951" y="962"/>
      <point x="880" y="1104"/>
      <point x="532" y="1104" type="curve" smooth="yes"/>
      <point x="248" y="1104"/>
      <point x="112" y="961"/>
      <point x="112" y="740" type="curve" smooth="yes"/>
      <point x="112" y="281" type="line" smooth="yes"/>
      <point x="112" y="96"/>
      <point x="310" y="-24"/>
    </contour>
    <contour>
      <point x="422" y="664" type="line"/>
      <point x="422" y="812" type="line" smooth="yes"/>
      <point x="422" y="847"/>
      <point x="445" y="894"/>
      <point x="536" y="894" type="curve" smooth="yes"/>
      <point x="630" y="894"/>
      <point x="649" y="849"/>
      <point x="649" y="812" type="curve" smooth="yes"/>
      <point x="649" y="664" type="line"/>
    </contour>
    <contour>
      <point x="332" y="1205" type="line"/>
      <point x="599" y="1205" type="line"/>
      <point x="599" y="1469" type="line"/>
      <point x="332" y="1469" type="line"/>
    </contour>
  </outline>
</glyph>
<glyph name="Eogonek" format="1">
  <advance width="821"/>
  <unicode hex="0118"/>
  <outline>
    <contour>
      <point x="740" y="-296" type="line"/>
      <point x="676" y="-296"/>
      <point x="581" y="-297"/>
      <point x="581" y="-199" type="curve" smooth="yes"/>
      <point x="581" y="-123"/>
      <point x="615" y="-58"/>
      <point x="640" y="13" type="curve"/>
      <point x="518" y="13" type="line"/>
      <point x="453" y="-49"/>
      <point x="393" y="-153"/>
      <point x="393" y="-244" type="curve" smooth="yes"/>
      <point x="393" y="-424"/>
      <point x="588" y="-432"/>
      <point x="723" y="-429" type="curve"/>
    </contour>
    <contour>
      <point x="162" y="0" type="line"/>
      <point x="943" y="0" type="line"/>
      <point x="943" y="261" type="line"/>
      <point x="501" y="261" type="line"/>
      <point x="501" y="636" type="line"/>
      <point x="850" y="636" type="line"/>
      <point x="850" y="877" type="line"/>
      <point x="501" y="877" type="line"/>
      <point x="501" y="1228" type="line"/>
      <point x="943" y="1228" type="line"/>
      <point x="943" y="1490" type="line"/>
      <point x="162" y="1490" type="line"/>
    </contour>
  </outline>
</glyph>
<glyph name="eogonek" format="1">
  <advance width="916"/>
  <unicode hex="0119"/>
  <outline>
    <contour>
      <point x="824" y="-296" type="line"/>
      <point x="760" y="-296"/>
      <point x="665" y="-297"/>
      <point x="665" y="-199" type="curve" smooth="yes"/>
      <point x="665" y="-123"/>
      <point x="699" y="-58"/>
      <point x="724" y="13" type="curve"/>
      <point x="602" y="13" type="line"/>
      <point x="537" y="-49"/>
      <point x="477" y="-153"/>
      <point x="477" y="-244" type="curve" smooth="yes"/>
      <point x="477" y="-424"/>
      <point x="672" y="-432"/>
      <point x="807" y="-429" type="curve"/>
    </contour>
    <contour>
      <point x="535" y="-24" type="curve" smooth="yes"/>
      <point x="310" y="-24"/>
      <point x="112" y="96"/>
      <point x="112" y="281" type="curve" smooth="yes"/>
      <point x="112" y="740" type="line" smooth="yes"/>
      <point x="112" y="961"/>
      <point x="248" y="1104"/>
      <point x="532" y="1104" type="curve" smooth="yes"/>
      <point x="880" y="1104"/>
      <point x="951" y="962"/>
      <point x="951" y="740" type="curve" smooth="yes"/>
      <point x="951" y="664" type="line"/>
      <point x="952" y="664" type="line"/>
      <point x="952" y="515" type="line"/>
      <point x="422" y="515" type="line"/>
      <point x="422" y="277" type="line" smooth="yes"/>
      <point x="422" y="241"/>
      <point x="437" y="186"/>
      <point x="536" y="186" type="curve" smooth="yes"/>
      <point x="639" y="186"/>
      <point x="649" y="239"/>
      <point x="649" y="277" type="curve" smooth="yes"/>
      <point x="649" y="409" type="line"/>
      <point x="951" y="409" type="line"/>
      <point x="951" y="281" type="line" smooth="yes"/>
      <point x="951" y="96"/>
      <point x="825" y="-24"/>
    </contour>
    <contour>
      <point x="422" y="664" type="line"/>
      <point x="649" y="664" type="line"/>
      <point x="649" y="812" type="line" smooth="yes"/>
      <point x="649" y="849"/>
      <point x="630" y="894"/>
      <point x="536" y="894" type="curve" smooth="yes"/>
      <point x="445" y="894"/>
      <point x="422" y="847"/>
      <point x="422" y="812" type="curve" smooth="yes"/>
    </contour>
  </outline>
</glyph>
<glyph name="Itilde" format="1">
  <advance width="478"/>
  <unicode hex="0128"/>
  <outline>
    <contour>
      <point x="451" y="1584" type="curve" smooth="yes"/>
      <point x="570" y="1584"/>
      <point x="580" y="1742"/>
      <point x="580" y="1831" type="curve"/>
      <point x="451" y="1831" type="line"/>
      <point x="451" y="1811"/>
      <point x="451" y="1793"/>
      <point x="422" y="1793" type="curve" smooth="yes"/>
      <point x="367" y="1793"/>
      <point x="204" y="1841"/>
      <point x="51" y="1841" type="curve" smooth="yes"/>
      <point x="-82" y="1841"/>
      <point x="-102" y="1719"/>
      <point x="-102" y="1593" type="curve"/>
      <point x="36" y="1593" type="line"/>
      <point x="36" y="1616"/>
      <point x="34" y="1645"/>
      <point x="77" y="1645" type="curve" smooth="yes"/>
      <point x="199" y="1645"/>
      <point x="363" y="1584"/>
    </contour>
    <contour>
      <point x="89" y="0" type="line"/>
      <point x="390" y="0" type="line"/>
      <point x="390" y="1490" type="line"/>
      <point x="89" y="1490" type="line"/>
    </contour>
  </outline>
</glyph>
<glyph name="itilde" format="1">
  <advance width="440"/>
  <unicode hex="0129"/>
  <outline>
    <contour>
      <point x="432" y="1174" type="curve" smooth="yes"/>
      <point x="551" y="1174"/>
      <point x="561" y="1332"/>
      <point x="561" y="1421" type="curve"/>
      <point x="432" y="1421" type="line"/>
      <point x="432" y="1401"/>
      <point x="432" y="1383"/>
      <point x="403" y="1383" type="curve" smooth="yes"/>
      <point x="348" y="1383"/>
      <point x="185" y="1431"/>
      <point x="32" y="1431" type="curve" smooth="yes"/>
      <point x="-101" y="1431"/>
      <point x="-121" y="1309"/>
      <point x="-121" y="1183" type="curve"/>
      <point x="17" y="1183" type="line"/>
      <point x="17" y="1206"/>
      <point x="15" y="1235"/>
      <point x="58" y="1235" type="curve" smooth="yes"/>
      <point x="180" y="1235"/>
      <point x="344" y="1174"/>
    </contour>
    <contour>
      <point x="103" y="0" type="line"/>
      <point x="381" y="0" type="line"/>
      <point x="381" y="1080" type="line"/>
      <point x="103" y="1080" type="line"/>
    </contour>
  </outline>
</glyph>
<glyph name="Imacron" format="1">
  <advance width="478"/>
  <unicode hex="012A"/>
  <outline>
    <contour>
      <point x="29" y="1616" type="line"/>
      <point x="449" y="1616" type="line"/>
      <point x="449" y="1775" type="line"/>
      <point x="29" y="1775" type="line"/>
    </contour>
    <contour>
      <point x="89" y="0" type="line"/>
      <point x="390" y="0" type="line"/>
      <point x="390" y="1490" type="line"/>
      <point x="89" y="1490" type="line"/>
    </contour>
  </outline>
</glyph>
<glyph name="Ibreve" format="1">
  <advance width="478"/>
  <unicode hex="012C"/>
  <outline>
    <contour>
      <point x="239" y="1600" type="curve" smooth="yes"/>
      <point x="361" y="1600"/>
      <point x="448" y="1683"/>
      <point x="448" y="1805" type="curve"/>
      <point x="306" y="1805" type="line"/>
      <point x="306" y="1764"/>
      <point x="290" y="1700"/>
      <point x="239" y="1700" type="curve" smooth="yes"/>
      <point x="188" y="1700"/>
      <point x="172" y="1764"/>
      <point x="172" y="1805" type="curve"/>
      <point x="30" y="1805" type="line"/>
      <point x="30" y="1683"/>
      <point x="117" y="1600"/>
    </contour>
    <contour>
      <point x="89" y="0" type="line"/>
      <point x="390" y="0" type="line"/>
      <point x="390" y="1490" type="line"/>
      <point x="89" y="1490" type="line"/>
    </contour>
  </outline>
</glyph>
<glyph name="ibreve" format="1">
  <advance width="440"/>
  <unicode hex="012D"/>
  <outline>
    <contour>
      <point x="242" y="1188" type="curve" smooth="yes"/>
      <point x="364" y="1188"/>
      <point x="451" y="1271"/>
      <point x="451" y="1393" type="curve"/>
      <point x="309" y="1393" type="line"/>
      <point x="309" y="1352"/>
      <point x="293" y="1288"/>
      <point x="242" y="1288" type="curve" smooth="yes"/>
      <point x="191" y="1288"/>
      <point x="175" y="1352"/>
      <point x="175" y="1393" type="curve"/>
      <point x="33" y="1393" type="line"/>
      <point x="33" y="1271"/>
      <point x="120" y="1188"/>
    </contour>
    <contour>
      <point x="103" y="0" type="line"/>
      <point x="381" y="0" type="line"/>
      <point x="381" y="1080" type="line"/>
      <point x="103" y="1080" type="line"/>
    </contour>
  </outline>
</glyph>
<glyph name="Iogonek" format="1">
  <advance width="478"/>
  <unicode hex="012E"/>
  <outline>
    <contour>
      <point x="413" y="-429" type="curve"/>
      <point x="430" y="-296" type="line"/>
      <point x="366" y="-296"/>
      <point x="271" y="-297"/>
      <point x="271" y="-199" type="curve" smooth="yes"/>
      <point x="271" y="-123"/>
      <point x="305" y="-58"/>
      <point x="330" y="13" type="curve"/>
      <point x="208" y="13" type="line"/>
      <point x="143" y="-49"/>
      <point x="83" y="-153"/>
      <point x="83" y="-244" type="curve" smooth="yes"/>
      <point x="83" y="-424"/>
      <point x="278" y="-432"/>
    </contour>
    <contour>
      <point x="89" y="0" type="line"/>
      <point x="390" y="0" type="line"/>
      <point x="390" y="1490" type="line"/>
      <point x="89" y="1490" type="line"/>
    </contour>
  </outline>
</glyph>
<glyph name="ij" format="1">
  <advance width="911"/>
  <unicode hex="0133"/>
  <outline>
    <contour>
      <point x="569" y="-257" type="curve" smooth="yes"/>
      <point x="744" y="-257"/>
      <point x="834" y="-148"/>
      <point x="834" y="22" type="curve" smooth="yes"/>
      <point x="834" y="1080" type="line"/>
      <point x="556" y="1080" type="line"/>
      <point x="556" y="46" type="line" smooth="yes"/>
      <point x="556" y="3"/>
      <point x="544" y="-46"/>
      <point x="493" y="-46" type="curve" smooth="yes"/>
      <point x="469" y="-46"/>
      <point x="444" y="-40"/>
      <point x="421" y="-33" type="curve"/>
      <point x="421" y="-235" type="line"/>
      <point x="469" y="-247"/>
      <point x="519" y="-257"/>
    </contour>
    <contour>
      <point x="131" y="0" type="line"/>
      <point x="441" y="0" type="line"/>
      <point x="441" y="1080" type="line"/>
      <point x="131" y="1080" type="line"/>
    </contour>
    <contour>
      <point x="131" y="1174" type="line"/>
      <point x="441" y="1174" type="line"/>
      <point x="441" y="1435" type="line"/>
      <point x="131" y="1435" type="line"/>
    </contour>
    <contour>
      <point x="556" y="1174" type="line"/>
      <point x="834" y="1174" type="line"/>
      <point x="834" y="1435" type="line"/>
      <point x="556" y="1435" type="line"/>
    </contour>
  </outline>
</glyph>
<glyph name="jcircumflex" format="1">
  <advance width="530"/>
  <unicode hex="0135"/>
  <outline>
    <contour>
      <point x="188" y="-257" type="curve" smooth="yes"/>
      <point x="363" y="-257"/>
      <point x="453" y="-148"/>
      <point x="453" y="22" type="curve" smooth="yes"/>
      <point x="453" y="1080" type="line"/>
      <point x="175" y="1080" type="line"/>
      <point x="175" y="46" type="line" smooth="yes"/>
      <point x="175" y="3"/>
      <point x="164" y="-46"/>
      <point x="113" y="-46" type="curve" smooth="yes"/>
      <point x="89" y="-46"/>
      <point x="63" y="-40"/>
      <point x="40" y="-33" type="curve"/>
      <point x="40" y="-235" type="line"/>
      <point x="88" y="-247"/>
      <point x="138" y="-257"/>
    </contour>
    <contour>
      <point x="26" y="1142" type="line"/>
      <point x="271" y="1142" type="line"/>
      <point x="380" y="1309" type="line"/>
      <point x="491" y="1142" type="line"/>
      <point x="738" y="1142" type="line"/>
      <point x="568" y="1478" type="line"/>
      <point x="192" y="1478" type="line"/>
    </contour>
  </outline>
</glyph>
<glyph name="lacute" format="1">
  <advance width="437"/>
  <unicode hex="013A"/>
  <outline>
    <contour>
      <point x="377" y="0" type="curve" smooth="yes"/>
      <point x="572" y="0" type="line"/>
      <point x="572" y="205" type="line"/>
      <point x="474" y="205"/>
      <point x="441" y="239"/>
      <point x="441" y="317" type="curve" smooth="yes"/>
      <point x="441" y="1490" type="line"/>
      <point x="131" y="1490" type="line"/>
      <point x="131" y="253" type="line" smooth="yes"/>
      <point x="131" y="101"/>
      <point x="192" y="0"/>
    </contour>
    <contour>
      <point x="135" y="1574" type="line"/>
      <point x="303" y="1574" type="line"/>
      <point x="533" y="1939" type="line"/>
      <point x="247" y="1939" type="line"/>
    </contour>
  </outline>
</glyph>
<glyph name="Lcaron" format="1">
  <advance width="767"/>
  <unicode hex="013D"/>
  <outline>
    <contour>
      <point x="1084" y="1054" type="line"/>
      <point x="1318" y="1019"/>
      <point x="1294" y="1235"/>
      <point x="1294" y="1518" type="curve"/>
      <point x="1027" y="1518" type="line"/>
      <point x="1027" y="1255" type="line"/>
      <point x="1118" y="1255" type="line"/>
      <point x="1117" y="1185"/>
      <point x="1111" y="1191"/>
      <point x="1051" y="1191" type="curve"/>
    </contour>
    <contour>
      <point x="89" y="0" type="line"/>
      <point x="760" y="0" type="line"/>
      <point x="760" y="207" type="line"/>
      <point x="390" y="207" type="line"/>
      <point x="390" y="1490" type="line"/>
      <point x="89" y="1490" type="line"/>
    </contour>
  </outline>
</glyph>
<glyph name="Nacute" format="1">
  <advance width="1334"/>
  <unicode hex="0143"/>
  <outline>
    <contour>
      <point x="162" y="0" type="line"/>
      <point x="466" y="0" type="line"/>
      <point x="466" y="868" type="line"/>
      <point x="1093" y="0" type="line"/>
      <point x="1287" y="0" type="line"/>
      <point x="1287" y="1490" type="line"/>
      <point x="986" y="1490" type="line"/>
      <point x="986" y="645" type="line"/>
      <point x="382" y="1490" type="line"/>
      <point x="162" y="1490" type="line"/>
    </contour>
    <contour>
      <point x="469" y="1563" type="line"/>
      <point x="637" y="1563" type="line"/>
      <point x="867" y="1928" type="line"/>
      <point x="581" y="1928" type="line"/>
    </contour>
  </outline>
</glyph>
<glyph name="ncommaaccent" format="1">
  <advance width="990"/>
  <unicode hex="0146"/>
  <outline>
    <contour>
      <point x="131" y="0" type="line"/>
      <point x="441" y="0" type="line"/>
      <point x="441" y="814" type="line" smooth="yes"/>
      <point x="441" y="851"/>
      <point x="511" y="894"/>
      <point x="572" y="894" type="curve" smooth="yes"/>
      <point x="621" y="894"/>
      <point x="664" y="867"/>
      <point x="664" y="790" type="curve" smooth="yes"/>
      <point x="664" y="0" type="line"/>
      <point x="975" y="0" type="line"/>
      <point x="975" y="854" type="line" smooth="yes"/>
      <point x="975" y="991"/>
      <point x="880" y="1104"/>
      <point x="719" y="1104" type="curve" smooth="yes"/>
      <point x="573" y="1104"/>
      <point x="499" y="1050"/>
      <point x="441" y="1004" type="curve"/>
      <point x="441" y="1080" type="line"/>
      <point x="131" y="1080" type="line"/>
    </contour>
  </outline>
</glyph>
<glyph name="ohungarumlaut" format="1">
  <advance width="959"/>
  <unicode hex="0151"/>
  <outline>
    <contour>
      <point x="112" y="281" type="line" smooth="yes"/>
      <point x="112" y="96"/>
      <point x="310" y="-24"/>
      <point x="535" y="-24" type="curve" smooth="yes"/>
      <point x="825" y="-24"/>
      <point x="964" y="96"/>
      <point x="964" y="281" type="curve" smooth="yes"/>
      <point x="964" y="740" type="line" smooth="yes"/>
      <point x="964" y="962"/>
      <point x="880" y="1104"/>
      <point x="532" y="1104" type="curve" smooth="yes"/>
      <point x="248" y="1104"/>
      <point x="112" y="961"/>
      <point x="112" y="740" type="curve" smooth="yes"/>
    </contour>
    <contour>
      <point x="654" y="277" type="line" smooth="yes"/>
      <point x="654" y="239"/>
      <point x="639" y="186"/>
      <point x="536" y="186" type="curve" smooth="yes"/>
      <point x="437" y="186"/>
      <point x="422" y="241"/>
      <point x="422" y="277" type="curve" smooth="yes"/>
      <point x="422" y="812" type="line" smooth="yes"/>
      <point x="422" y="847"/>
      <point x="445" y="894"/>
      <point x="536" y="894" type="curve" smooth="yes"/>
      <point x="630" y="894"/>
      <point x="654" y="849"/>
      <point x="654" y="812" type="curve" smooth="yes"/>
    </contour>
    <contour>
      <point x="187" y="1189" type="line"/>
      <point x="356" y="1189" type="line"/>
      <point x="649" y="1554" type="line"/>
      <point x="300" y="1554" type="line"/>
    </contour>
    <contour>
      <point x="494" y="1189" type="line"/>
      <point x="782" y="1189" type="line"/>
      <point x="960" y="1554" type="line"/>
      <point x="699" y="1554" type="line"/>
    </contour>
  </outline>
</glyph>
<glyph name="oe" format="1">
  <advance width="1371"/>
  <unicode hex="0153"/>
  <outline>
    <contour>
      <point x="421" y="-25" type="curve" smooth="yes"/>
      <point x="564" y="-25"/>
      <point x="640" y="1"/>
      <point x="702" y="47" type="curve"/>
      <point x="761" y="1"/>
      <point x="831" y="-25"/>
      <point x="954" y="-25" type="curve" smooth="yes"/>
      <point x="1164" y="-25"/>
      <point x="1315" y="96"/>
      <point x="1315" y="281" type="curve" smooth="yes"/>
      <point x="1315" y="402" type="line"/>
      <point x="1039" y="402" type="line"/>
      <point x="1039" y="384"/>
      <point x="1041" y="352"/>
      <point x="1041" y="318" type="curve" smooth="yes"/>
      <point x="1041" y="259"/>
      <point x="1028" y="195"/>
      <point x="939" y="195" type="curve" smooth="yes"/>
      <point x="851" y="195"/>
      <point x="844" y="250"/>
      <point x="844" y="286" type="curve" smooth="yes"/>
      <point x="844" y="516" type="line"/>
      <point x="1315" y="516" type="line"/>
      <point x="1315" y="740" type="line" smooth="yes"/>
      <point x="1315" y="962"/>
      <point x="1221" y="1104"/>
      <point x="969" y="1104" type="curve" smooth="yes"/>
      <point x="826" y="1104"/>
      <point x="757" y="1080"/>
      <point x="702" y="1039" type="curve"/>
      <point x="651" y="1080"/>
      <point x="584" y="1104"/>
      <point x="450" y="1104" type="curve" smooth="yes"/>
      <point x="166" y="1104"/>
      <point x="69" y="961"/>
      <point x="69" y="740" type="curve" smooth="yes"/>
      <point x="69" y="281" type="line" smooth="yes"/>
      <point x="69" y="96"/>
      <point x="217" y="-25"/>
    </contour>
    <contour>
      <point x="450" y="195" type="curve" smooth="yes"/>
      <point x="350" y="195"/>
      <point x="348" y="250"/>
      <point x="348" y="286" type="curve" smooth="yes"/>
      <point x="348" y="798" type="line" smooth="yes"/>
      <point x="348" y="833"/>
      <point x="359" y="880"/>
      <point x="450" y="880" type="curve" smooth="yes"/>
      <point x="544" y="880"/>
      <point x="565" y="835"/>
      <point x="565" y="798" type="curve" smooth="yes"/>
      <point x="565" y="281" type="line"/>
      <point x="564" y="244"/>
      <point x="547" y="195"/>
    </contour>
    <contour>
      <point x="844" y="663" type="line"/>
      <point x="844" y="798" type="line" smooth="yes"/>
      <point x="844" y="833"/>
      <point x="860" y="880"/>
      <point x="939" y="880" type="curve" smooth="yes"/>
      <point x="1021" y="880"/>
      <point x="1039" y="835"/>
      <point x="1039" y="798" type="curve" smooth="yes"/>
      <point x="1039" y="663" type="line"/>
    </contour>
  </outline>
</glyph>
<glyph name="tcaron" format="1">
  <advance width="552"/>
  <unicode hex="0165"/>
  <outline>
    <contour>
      <point x="146" y="894" type="line"/>
      <point x="146" y="338" type="line" smooth="yes"/>
      <point x="146" y="115"/>
      <point x="190" y="-20"/>
      <point x="422" y="-20" type="curve" smooth="yes"/>
      <point x="476" y="-20"/>
      <point x="569" y="-13"/>
      <point x="645" y="2" type="curve"/>
      <point x="645" y="220" type="line"/>
      <point x="618" y="216"/>
      <point x="562" y="215"/>
      <point x="535" y="215" type="curve" smooth="yes"/>
      <point x="476" y="215"/>
      <point x="458" y="248"/>
      <point x="458" y="304" type="curve" smooth="yes"/>
      <point x="458" y="894" type="line"/>
      <point x="645" y="894" type="line"/>
      <point x="645" y="1080" type="line"/>
      <point x="458" y="1080" type="line"/>
      <point x="458" y="1435" type="line"/>
      <point x="173" y="1435" type="line"/>
      <point x="146" y="1080" type="line"/>
      <point x="51" y="1080" type="line"/>
      <point x="51" y="894" type="line"/>
    </contour>
    <contour>
      <point x="633" y="971" type="line"/>
      <point x="867" y="936"/>
      <point x="843" y="1152"/>
      <point x="843" y="1435" type="curve"/>
      <point x="576" y="1435" type="line"/>
      <point x="576" y="1172" type="line"/>
      <point x="667" y="1172" type="line"/>
      <point x="666" y="1102"/>
      <point x="660" y="1108"/>
      <point x="600" y="1108" type="curve"/>
    </contour>
  </outline>
</glyph>
<glyph name="Utilde" format="1">
  <advance width="1373"/>
  <unicode hex="0168"/>
  <outline>
    <contour>
      <point x="648" y="-29" type="curve" smooth="yes"/>
      <point x="753" y="-29" type="line" smooth="yes"/>
      <point x="1189" y="-29"/>
      <point x="1264" y="203"/>
      <point x="1264" y="490" type="curve" smooth="yes"/>
      <point x="1264" y="1490" type="line"/>
      <point x="925" y="1490" type="line"/>
      <point x="925" y="404" type="line" smooth="yes"/>
      <point x="925" y="286"/>
      <point x="911" y="237"/>
      <point x="701" y="237" type="curve" smooth="yes"/>
      <point x="494" y="237"/>
      <point x="477" y="285"/>
      <point x="477" y="404" type="curve" smooth="yes"/>
      <point x="477" y="1490" type="line"/>
      <point x="139" y="1490" type="line"/>
      <point x="139" y="473" type="line" smooth="yes"/>
      <point x="139" y="186"/>
      <point x="212" y="-29"/>
    </contour>
    <contour>
      <point x="899" y="1584" type="curve" smooth="yes"/>
      <point x="1018" y="1584"/>
      <point x="1028" y="1742"/>
      <point x="1028" y="1831" type="curve"/>
      <point x="899" y="1831" type="line"/>
      <point x="899" y="1811"/>
      <point x="899" y="1793"/>
      <point x="870" y="1793" type="curve" smooth="yes"/>
      <point x="815" y="1793"/>
      <point x="652" y="1841"/>
      <point x="499" y="1841" type="curve" smooth="yes"/>
      <point x="366" y="1841"/>
      <point x="346" y="1719"/>
      <point x="346" y="1593" type="curve"/>
      <point x="484" y="1593" type="line"/>
      <point x="484" y="1616"/>
      <point x="482" y="1645"/>
      <point x="525" y="1645" type="curve" smooth="yes"/>
      <point x="647" y="1645"/>
      <point x="811" y="1584"/>
    </contour>
  </outline>
</glyph>
<glyph name="utilde" format="1">
  <advance width="992"/>
  <unicode hex="0169"/>
  <outline>
    <contour>
      <point x="386" y="-24" type="curve" smooth="yes"/>
      <point x="532" y="-24"/>
      <point x="606" y="30"/>
      <point x="664" y="76" type="curve"/>
      <point x="664" y="0" type="line"/>
      <point x="975" y="0" type="line"/>
      <point x="975" y="1080" type="line"/>
      <point x="664" y="1080" type="line"/>
      <point x="664" y="266" type="line" smooth="yes"/>
      <point x="664" y="229"/>
      <point x="595" y="186"/>
      <point x="534" y="186" type="curve" smooth="yes"/>
      <point x="485" y="186"/>
      <point x="441" y="213"/>
      <point x="441" y="290" type="curve" smooth="yes"/>
      <point x="441" y="1080" type="line"/>
      <point x="131" y="1080" type="line"/>
      <point x="131" y="226" type="line" smooth="yes"/>
      <point x="131" y="89"/>
      <point x="225" y="-24"/>
    </contour>
    <contour>
      <point x="766" y="1205" type="curve" smooth="yes"/>
      <point x="885" y="1205"/>
      <point x="895" y="1363"/>
      <point x="895" y="1452" type="curve"/>
      <point x="766" y="1452" type="line"/>
      <point x="766" y="1432"/>
      <point x="766" y="1414"/>
      <point x="737" y="1414" type="curve" smooth="yes"/>
      <point x="682" y="1414"/>
      <point x="519" y="1462"/>
      <point x="366" y="1462" type="curve" smooth="yes"/>
      <point x="233" y="1462"/>
      <point x="213" y="1340"/>
      <point x="213" y="1214" type="curve"/>
      <point x="351" y="1214" type="line"/>
      <point x="351" y="1237"/>
      <point x="349" y="1266"/>
      <point x="392" y="1266" type="curve" smooth="yes"/>
      <point x="514" y="1266"/>
      <point x="678" y="1205"/>
    </contour>
  </outline>
</glyph>
<glyph name="Umacron" format="1">
  <advance width="1373"/>
  <unicode hex="016A"/>
  <outline>
    <contour>
      <point x="648" y="-29" type="curve" smooth="yes"/>
      <point x="753" y="-29" type="line" smooth="yes"/>
      <point x="1189" y="-29"/>
      <point x="1264" y="203"/>
      <point x="1264" y="490" type="curve" smooth="yes"/>
      <point x="1264" y="1490" type="line"/>
      <point x="925" y="1490" type="line"/>
      <point x="925" y="404" type="line" smooth="yes"/>
      <point x="925" y="286"/>
      <point x="911" y="237"/>
      <point x="701" y="237" type="curve" smooth="yes"/>
      <point x="494" y="237"/>
      <point x="477" y="285"/>
      <point x="477" y="404" type="curve" smooth="yes"/>
      <point x="477" y="1490" type="line"/>
      <point x="139" y="1490" type="line"/>
      <point x="139" y="473" type="line" smooth="yes"/>
      <point x="139" y="186"/>
      <point x="212" y="-29"/>
    </contour>
    <contour>
      <point x="477" y="1616" type="line"/>
      <point x="897" y="1616" type="line"/>
      <point x="897" y="1775" type="line"/>
      <point x="477" y="1775" type="line"/>
    </contour>
  </outline>
</glyph>
<glyph name="Zacute" format="1">
  <advance width="1050"/>
  <unicode hex="0179"/>
  <outline>
    <contour>
      <point x="327" y="1563" type="line"/>
      <point x="495" y="1563" type="line"/>
      <point x="725" y="1928" type="line"/>
      <point x="439" y="1928" type="line"/>
    </contour>
    <contour>
      <point x="66" y="0" type="line"/>
      <point x="979" y="0" type="line"/>
      <point x="979" y="207" type="line"/>
      <point x="431" y="207" type="line"/>
      <point x="979" y="1299" type="line"/>
      <point x="979" y="1489" type="line"/>
      <point x="112" y="1489" type="line"/>
      <point x="112" y="1282" type="line"/>
      <point x="611" y="1282" type="line"/>
      <point x="66" y="189" type="line"/>
    </contour>
  </outline>
</glyph>
<glyph name="uni01C5" format="1">
  <advance width="2022"/>
  <unicode hex="01C5"/>
  <outline>
    <contour>
      <point x="1254" y="0" type="line"/>
      <point x="1982" y="0" type="line"/>
      <point x="1982" y="202" type="line"/>
      <point x="1605" y="202" type="line"/>
      <point x="1982" y="895" type="line"/>
      <point x="1982" y="1080" type="line"/>
      <point x="1301" y="1080" type="line"/>
      <point x="1301" y="879" type="line"/>
      <point x="1626" y="879" type="line"/>
      <point x="1254" y="189" type="line"/>
    </contour>
    <contour>
      <point x="1463" y="1146" type="line"/>
      <point x="1839" y="1146" type="line"/>
      <point x="2009" y="1482" type="line"/>
      <point x="1762" y="1482" type="line"/>
      <point x="1650" y="1316" type="line"/>
      <point x="1542" y="1482" type="line"/>
      <point x="1296" y="1482" type="line"/>
    </contour>
    <contour>
      <point x="930" y="433" type="line" smooth="yes"/>
      <point x="930" y="315"/>
      <point x="919" y="266"/>
      <point x="709" y="266" type="curve" smooth="yes"/>
      <point x="501" y="266" type="line"/>
      <point x="501" y="1223" type="line"/>
      <point x="709" y="1223" type="line" smooth="yes"/>
      <point x="916" y="1223"/>
      <point x="930" y="1165"/>
      <point x="930" y="1053" type="curve" smooth="yes"/>
    </contour>
    <contour>
      <point x="758" y="0" type="line" smooth="yes"/>
      <point x="1194" y="0"/>
      <point x="1269" y="232"/>
      <point x="1269" y="519" type="curve" smooth="yes"/>
      <point x="1269" y="962" type="line" smooth="yes"/>
      <point x="1269" y="1257"/>
      <point x="1197" y="1490"/>
      <point x="758" y="1490" type="curve" smooth="yes"/>
      <point x="162" y="1490" type="line"/>
      <point x="162" y="0" type="line"/>
    </contour>
  </outline>
</glyph>
<glyph name="uni01C7" format="1">
  <advance width="1338"/>
  <unicode hex="01C7"/>
  <outline>
    <contour>
      <point x="0" y="-28" type="line"/>
      <point x="148" y="-28" type="line" smooth="yes"/>
      <point x="429" y="-28"/>
      <point x="483" y="100"/>
      <point x="483" y="357" type="curve" smooth="yes"/>
      <point x="483" y="1490" type="line"/>
      <point x="182" y="1490" type="line"/>
      <point x="182" y="360" type="line" smooth="yes"/>
      <point x="182" y="212"/>
      <point x="144" y="182"/>
      <point x="0" y="184" type="curve"/>
    </contour>
    <contour>
      <point x="661" y="0" type="line"/>
      <point x="1332" y="0" type="line"/>
      <point x="1332" y="207" type="line"/>
      <point x="962" y="207" type="line"/>
      <point x="962" y="1490" type="line"/>
      <point x="661" y="1490" type="line"/>
    </contour>
  </outline>
</glyph>
<glyph name="uni01C8" format="1">
  <advance width="1240"/>
  <unicode hex="01C8"/>
  <outline>
    <contour>
      <point x="898" y="-257" type="curve" smooth="yes"/>
      <point x="1073" y="-257"/>
      <point x="1163" y="-148"/>
      <point x="1163" y="22" type="curve" smooth="yes"/>
      <point x="1163" y="1080" type="line"/>
      <point x="885" y="1080" type="line"/>
      <point x="885" y="46" type="line" smooth="yes"/>
      <point x="885" y="3"/>
      <point x="873" y="-46"/>
      <point x="822" y="-46" type="curve" smooth="yes"/>
      <point x="798" y="-46"/>
      <point x="773" y="-40"/>
      <point x="750" y="-33" type="curve"/>
      <point x="750" y="-235" type="line"/>
      <point x="798" y="-247"/>
      <point x="848" y="-257"/>
    </contour>
    <contour>
      <point x="89" y="0" type="line"/>
      <point x="760" y="0" type="line"/>
      <point x="760" y="207" type="line"/>
      <point x="390" y="207" type="line"/>
      <point x="390" y="1490" type="line"/>
      <point x="89" y="1490" type="line"/>
    </contour>
    <contour>
      <point x="885" y="1174" type="line"/>
      <point x="1163" y="1174" type="line"/>
      <point x="1163" y="1435" type="line"/>
      <point x="885" y="1435" type="line"/>
    </contour>
  </outline>
</glyph>
<glyph name="uni01F3" format="1">
  <advance width="1801"/>
  <unicode hex="01F3"/>
  <outline>
    <contour>
      <point x="1033" y="0" type="line"/>
      <point x="1761" y="0" type="line"/>
      <point x="1761" y="202" type="line"/>
      <point x="1384" y="202" type="line"/>
      <point x="1761" y="895" type="line"/>
      <point x="1761" y="1080" type="line"/>
      <point x="1080" y="1080" type="line"/>
      <point x="1080" y="879" type="line"/>
      <point x="1405" y="879" type="line"/>
      <point x="1033" y="189" type="line"/>
    </contour>
    <contour>
      <point x="428" y="281" type="curve" smooth="yes"/>
      <point x="428" y="789" type="line" smooth="yes"/>
      <point x="428" y="837"/>
      <point x="450" y="894"/>
      <point x="534" y="894" type="curve" smooth="yes"/>
      <point x="600" y="894"/>
      <point x="656" y="848"/>
      <point x="656" y="813" type="curve" smooth="yes"/>
      <point x="656" y="253" type="line" smooth="yes"/>
      <point x="656" y="219"/>
      <point x="585" y="181"/>
      <point x="525" y="181" type="curve" smooth="yes"/>
      <point x="453" y="181"/>
      <point x="428" y="221"/>
    </contour>
    <contour>
      <point x="967" y="0" type="line"/>
      <point x="967" y="1490" type="line"/>
      <point x="656" y="1490" type="line"/>
      <point x="656" y="1007" type="line"/>
      <point x="622" y="1040"/>
      <point x="570" y="1105"/>
      <point x="430" y="1105" type="curve" smooth="yes"/>
      <point x="243" y="1105"/>
      <point x="118" y="977"/>
      <point x="118" y="828" type="curve" smooth="yes"/>
      <point x="118" y="240" type="line" smooth="yes"/>
      <point x="118" y="87"/>
      <point x="266" y="-25"/>
      <point x="410" y="-25" type="curve" smooth="yes"/>
      <point x="530" y="-25"/>
      <point x="608" y="21"/>
      <point x="656" y="81" type="curve"/>
      <point x="656" y="0" type="line"/>
    </contour>
  </outline>
</glyph>
<glyph name="uni0202" format="1">
  <advance width="1175"/>
  <unicode hex="0202"/>
  <outline>
    <contour>
      <point x="53" y="0" type="line"/>
      <point x="400" y="0" type="line"/>
      <point x="467" y="319" type="line"/>
      <point x="825" y="319" type="line"/>
      <point x="892" y="0" type="line"/>
      <point x="1241" y="0" type="line"/>
      <point x="909" y="1490" type="line"/>
      <point x="386" y="1490" type="line"/>
    </contour>
    <contour>
      <point x="443" y="1603" type="curve"/>
      <point x="585" y="1603" type="line"/>
      <point x="585" y="1644"/>
      <point x="601" y="1708"/>
      <point x="652" y="1708" type="curve" smooth="yes"/>
      <point x="703" y="1708"/>
      <point x="719" y="1644"/>
      <point x="719" y="1603" type="curve"/>
      <point x="861" y="1603" type="line"/>
      <point x="861" y="1725"/>
      <point x="774" y="1808"/>
      <point x="652" y="1808" type="curve" smooth="yes"/>
      <point x="530" y="1808"/>
      <point x="443" y="1725"/>
    </contour>
    <contour>
      <point x="501" y="504" type="line"/>
      <point x="649" y="1280" type="line"/>
      <point x="789" y="504" type="line"/>
    </contour>
  </outline>
</glyph>
<glyph name="uni0206" format="1">
  <advance width="821"/>
  <unicode hex="0206"/>
  <outline>
    <contour>
      <point x="162" y="0" type="line"/>
      <point x="943" y="0" type="line"/>
      <point x="943" y="261" type="line"/>
      <point x="501" y="261" type="line"/>
      <point x="501" y="636" type="line"/>
      <point x="850" y="636" type="line"/>
      <point x="850" y="877" type="line"/>
      <point x="501" y="877" type="line"/>
      <point x="501" y="1228" type="line"/>
      <point x="943" y="1228" type="line"/>
      <point x="943" y="1490" type="line"/>
      <point x="162" y="1490" type="line"/>
    </contour>
    <contour>
      <point x="301" y="1603" type="curve"/>
      <point x="443" y="1603" type="line"/>
      <point x="443" y="1644"/>
      <point x="459" y="1708"/>
      <point x="510" y="1708" type="curve" smooth="yes"/>
      <point x="561" y="1708"/>
      <point x="577" y="1644"/>
      <point x="577" y="1603" type="curve"/>
      <point x="719" y="1603" type="line"/>
      <point x="719" y="1725"/>
      <point x="632" y="1808"/>
      <point x="510" y="1808" type="curve" smooth="yes"/>
      <point x="388" y="1808"/>
      <point x="301" y="1725"/>
    </contour>
  </outline>
</glyph>
<glyph name="uni0207" format="1">
  <advance width="916"/>
  <unicode hex="0207"/>
  <outline>
    <contour>
      <point x="535" y="-24" type="curve" smooth="yes"/>
      <point x="825" y="-24"/>
      <point x="951" y="96"/>
      <point x="951" y="281" type="curve" smooth="yes"/>
      <point x="951" y="409" type="line"/>
      <point x="649" y="409" type="line"/>
      <point x="649" y="277" type="line" smooth="yes"/>
      <point x="649" y="239"/>
      <point x="639" y="186"/>
      <point x="536" y="186" type="curve" smooth="yes"/>
      <point x="437" y="186"/>
      <point x="422" y="241"/>
      <point x="422" y="277" type="curve" smooth="yes"/>
      <point x="422" y="515" type="line"/>
      <point x="952" y="515" type="line"/>
      <point x="952" y="664" type="line"/>
      <point x="951" y="664" type="line"/>
      <point x="951" y="740" type="line" smooth="yes"/>
      <point x="951" y="962"/>
      <point x="880" y="1104"/>
      <point x="532" y="1104" type="curve" smooth="yes"/>
      <point x="248" y="1104"/>
      <point x="112" y="961"/>
      <point x="112" y="740" type="curve" smooth="yes"/>
      <point x="112" y="281" type="line" smooth="yes"/>
      <point x="112" y="96"/>
      <point x="310" y="-24"/>
    </contour>
    <contour>
      <point x="187" y="1189" type="curve"/>
      <point x="329" y="1189" type="line"/>
      <point x="329" y="1230"/>
      <point x="345" y="1294"/>
      <point x="396" y="1294" type="curve" smooth="yes"/>
      <point x="447" y="1294"/>
      <point x="463" y="1230"/>
      <point x="463" y="1189" type="curve"/>
      <point x="605" y="1189" type="line"/>
      <point x="605" y="1311"/>
      <point x="518" y="1394"/>
      <point x="396" y="1394" type="curve" smooth="yes"/>
      <point x="274" y="1394"/>
      <point x="187" y="1311"/>
    </contour>
    <contour>
      <point x="422" y="664" type="line"/>
      <point x="422" y="812" type="line" smooth="yes"/>
      <point x="422" y="847"/>
      <point x="445" y="894"/>
      <point x="536" y="894" type="curve" smooth="yes"/>
      <point x="630" y="894"/>
      <point x="649" y="849"/>
      <point x="649" y="812" type="curve" smooth="yes"/>
      <point x="649" y="664" type="line"/>
    </contour>
  </outline>
</glyph>
<glyph name="uni020B" format="1">
  <advance width="437"/>
  <unicode hex="020B"/>
  <outline>
    <contour>
      <point x="131" y="0" type="line"/>
      <point x="441" y="0" type="line"/>
      <point x="441" y="1080" type="line"/>
      <point x="131" y="1080" type="line"/>
    </contour>
    <contour>
      <point x="131" y="1174" type="line"/>
      <point x="441" y="1174" type="line"/>
      <point x="441" y="1435" type="line"/>
      <point x="131" y="1435" type="line"/>
    </contour>
  </outline>
</glyph>
<glyph name="uni0216" format="1">
  <advance width="1373"/>
  <unicode hex="0216"/>
  <outline>
    <contour>
      <point x="648" y="-29" type="curve" smooth="yes"/>
      <point x="753" y="-29" type="line" smooth="yes"/>
      <point x="1189" y="-29"/>
      <point x="1264" y="203"/>
      <point x="1264" y="490" type="curve" smooth="yes"/>
      <point x="1264" y="1490" type="line"/>
      <point x="925" y="1490" type="line"/>
      <point x="925" y="404" type="line" smooth="yes"/>
      <point x="925" y="286"/>
      <point x="911" y="237"/>
      <point x="701" y="237" type="curve" smooth="yes"/>
      <point x="494" y="237"/>
      <point x="477" y="285"/>
      <point x="477" y="404" type="curve" smooth="yes"/>
      <point x="477" y="1490" type="line"/>
      <point x="139" y="1490" type="line"/>
      <point x="139" y="473" type="line" smooth="yes"/>
      <point x="139" y="186"/>
      <point x="212" y="-29"/>
    </contour>
    <contour>
      <point x="311" y="1599" type="curve"/>
      <point x="453" y="1599" type="line"/>
      <point x="453" y="1640"/>
      <point x="469" y="1704"/>
      <point x="520" y="1704" type="curve" smooth="yes"/>
      <point x="571" y="1704"/>
      <point x="587" y="1640"/>
      <point x="587" y="1599" type="curve"/>
      <point x="729" y="1599" type="line"/>
      <point x="729" y="1721"/>
      <point x="642" y="1804"/>
      <point x="520" y="1804" type="curve" smooth="yes"/>
      <point x="398" y="1804"/>
      <point x="311" y="1721"/>
    </contour>
  </outline>
</glyph>
<glyph name="ring" format="1">
  <advance width="626"/>
  <unicode hex="02DA"/>
  <outline>
    <contour>
      <point x="308" y="1277" type="curve" smooth="yes"/>
      <point x="246" y="1277"/>
      <point x="204" y="1301"/>
      <point x="204" y="1389" type="curve" smooth="yes"/>
      <point x="204" y="1476"/>
      <point x="246" y="1499"/>
      <point x="307" y="1499" type="curve" smooth="yes"/>
      <point x="370" y="1499"/>
      <point x="412" y="1475"/>
      <point x="412" y="1387" type="curve" smooth="yes"/>
      <point x="412" y="1300"/>
      <point x="370" y="1277"/>
    </contour>
    <contour>
      <point x="308" y="1190" type="curve" smooth="yes"/>
      <point x="447" y="1190"/>
      <point x="518" y="1265"/>
      <point x="518" y="1388" type="curve" smooth="yes"/>
      <point x="518" y="1510"/>
      <point x="446" y="1585"/>
      <point x="308" y="1585" type="curve" smooth="yes"/>
      <point x="169" y="1585"/>
      <point x="98" y="1511"/>
      <point x="98" y="1388" type="curve" smooth="yes"/>
      <point x="98" y="1265"/>
      <point x="169" y="1190"/>
    </contour>
  </outline>
</glyph>
<glyph name="ogonek" format="1">
  <advance width="475"/>
  <unicode hex="02DB"/>
  <outline>
    <contour>
      <point x="370" y="-429" type="curve"/>
      <point x="387" y="-296" type="line"/>
      <point x="323" y="-296"/>
      <point x="228" y="-297"/>
      <point x="228" y="-199" type="curve" smooth="yes"/>
      <point x="228" y="-123"/>
      <point x="262" y="-58"/>
      <point x="287" y="13" type="curve"/>
      <point x="165" y="13" type="line"/>
      <point x="100" y="-49"/>
      <point x="40" y="-153"/>
      <point x="40" y="-244" type="curve" smooth="yes"/>
      <point x="40" y="-424"/>
      <point x="235" y="-432"/>
    </contour>
  </outline>
</glyph>
<glyph name="tilde" format="1">
  <advance width="866"/>
  <unicode hex="02DC"/>
  <outline>
    <contour>
      <point x="238" y="1183" type="line"/>
      <point x="238" y="1206"/>
      <point x="236" y="1235"/>
      <point x="279" y="1235" type="curve" smooth="yes"/>
      <point x="401" y="1235"/>
      <point x="565" y="1174"/>
      <point x="653" y="1174" type="curve" smooth="yes"/>
      <point x="772" y="1174"/>
      <point x="782" y="1332"/>
      <point x="782" y="1421" type="curve"/>
      <point x="653" y="1421" type="line"/>
      <point x="653" y="1401"/>
      <point x="653" y="1383"/>
      <point x="624" y="1383" type="curve" smooth="yes"/>
      <point x="569" y="1383"/>
      <point x="406" y="1431"/>
      <point x="253" y="1431" type="curve" smooth="yes"/>
      <point x="120" y="1431"/>
      <point x="100" y="1309"/>
      <point x="100" y="1183" type="curve"/>
    </contour>
  </outline>
</glyph>
<glyph name="uni0311" format="1">
  <advance width="602"/>
  <unicode hex="0311"/>
  <outline>
    <contour>
      <point x="79" y="1190" type="curve"/>
      <point x="221" y="1190" type="line"/>
      <point x="221" y="1231"/>
      <point x="237" y="1295"/>
      <point x="288" y="1295" type="curve" smooth="yes"/>
      <point x="339" y="1295"/>
      <point x="355" y="1231"/>
      <point x="355" y="1190" type="curve"/>
      <point x="497" y="1190" type="line"/>
      <point x="497" y="1312"/>
      <point x="410" y="1395"/>
      <point x="288" y="1395" type="curve" smooth="yes"/>
      <point x="166" y="1395"/>
      <point x="79" y="1312"/>
    </contour>
  </outline>
</glyph>
<glyph name="Delta" format="1">
  <advance width="1141"/>
  <unicode hex="0394"/>
  <outline>
    <contour>
      <point x="345" y="159" type="line"/>
      <point x="570" y="1042" type="line"/>
      <point x="796" y="159" type="line"/>
    </contour>
    <contour>
      <point x="65" y="0" type="line"/>
      <point x="1078" y="0" type="line"/>
      <point x="764" y="1360" type="line"/>
      <point x="379" y="1360" type="line"/>
    </contour>
  </outline>
</glyph>
<glyph name="uni1E0B" format="1">
  <advance width="986"/>
  <unicode hex="1E0B"/>
  <outline>
    <contour>
      <point x="410" y="-25" type="curve" smooth="yes"/>
      <point x="530" y="-25"/>
      <point x="608" y="21"/>
      <point x="656" y="81" type="curve"/>
      <point x="656" y="0" type="line"/>
      <point x="967" y="0" type="line"/>
      <point x="967" y="1490" type="line"/>
      <point x="656" y="1490" type="line"/>
      <point x="656" y="1007" type="line"/>
      <point x="622" y="1040"/>
      <point x="570" y="1105"/>
      <point x="430" y="1105" type="curve" smooth="yes"/>
      <point x="243" y="1105"/>
      <point x="118" y="977"/>
      <point x="118" y="828" type="curve" smooth="yes"/>
      <point x="118" y="240" type="line" smooth="yes"/>
      <point x="118" y="87"/>
      <point x="266" y="-25"/>
    </contour>
    <contour>
      <point x="525" y="181" type="curve" smooth="yes"/>
      <point x="453" y="181"/>
      <point x="428" y="221"/>
      <point x="428" y="281" type="curve" smooth="yes"/>
      <point x="428" y="789" type="line" smooth="yes"/>
      <point x="428" y="837"/>
      <point x="450" y="894"/>
      <point x="534" y="894" type="curve" smooth="yes"/>
      <point x="600" y="894"/>
      <point x="656" y="848"/>
      <point x="656" y="813" type="curve" smooth="yes"/>
      <point x="656" y="253" type="line" smooth="yes"/>
      <point x="656" y="219"/>
      <point x="585" y="181"/>
    </contour>
    <contour>
      <point x="353" y="1590" type="line"/>
      <point x="620" y="1590" type="line"/>
      <point x="620" y="1854" type="line"/>
      <point x="353" y="1854" type="line"/>
    </contour>
  </outline>
</glyph>
<glyph name="uni1E56" format="1">
  <advance width="1028"/>
  <unicode hex="1E56"/>
  <outline>
    <contour>
      <point x="89" y="0" type="line"/>
      <point x="391" y="0" type="line"/>
      <point x="391" y="637" type="line"/>
      <point x="841" y="639"/>
      <point x="1003" y="726"/>
      <point x="1003" y="1067" type="curve" smooth="yes"/>
      <point x="1003" y="1330"/>
      <point x="900" y="1490"/>
      <point x="494" y="1490" type="curve" smooth="yes"/>
      <point x="89" y="1490" type="line"/>
    </contour>
    <contour>
      <point x="412" y="1619" type="line"/>
      <point x="679" y="1619" type="line"/>
      <point x="679" y="1883" type="line"/>
      <point x="412" y="1883" type="line"/>
    </contour>
    <contour>
      <point x="393" y="850" type="curve"/>
      <point x="393" y="1275" type="line"/>
      <point x="648" y="1275"/>
      <point x="649" y="1191"/>
      <point x="649" y="1073" type="curve" smooth="yes"/>
      <point x="649" y="922"/>
      <point x="657" y="850"/>
    </contour>
  </outline>
</glyph>
<glyph name="uni1E6A" format="1">
  <advance width="777"/>
  <unicode hex="1E6A"/>
  <outline>
    <contour>
      <point x="242" y="0" type="line"/>
      <point x="551" y="0" type="line"/>
      <point x="551" y="1264" type="line"/>
      <point x="766" y="1264" type="line"/>
      <point x="766" y="1490" type="line"/>
      <point x="12" y="1490" type="line"/>
      <point x="12" y="1264" type="line"/>
      <point x="242" y="1264" type="line"/>
    </contour>
    <contour>
      <point x="255" y="1650" type="line"/>
      <point x="522" y="1650" type="line"/>
      <point x="522" y="1914" type="line"/>
      <point x="255" y="1914" type="line"/>
    </contour>
  </outline>
</glyph>
<glyph name="quoteleft" format="1">
  <advance width="465"/>
  <unicode hex="2018"/>
  <outline>
    <contour>
      <point x="352" y="1060" type="line"/>
      <point x="352" y="1306" type="line"/>
      <point x="246" y="1306" type="line"/>
      <point x="248" y="1365"/>
      <point x="314" y="1379"/>
      <point x="361" y="1378" type="curve"/>
      <point x="292" y="1518" type="line"/>
      <point x="57" y="1519"/>
      <point x="106" y="1223"/>
      <point x="106" y="1060" type="curve"/>
    </contour>
  </outline>
</glyph>
<glyph name="quoteright" format="1">
  <advance width="465"/>
  <unicode hex="2019"/>
  <outline>
    <contour>
      <point x="165" y="1060" type="line"/>
      <point x="400" y="1059"/>
      <point x="351" y="1355"/>
      <point x="351" y="1518" type="curve"/>
      <point x="106" y="1518" type="line"/>
      <point x="106" y="1272" type="line"/>
      <point x="212" y="1272" type="line"/>
      <point x="209" y="1212"/>
      <point x="144" y="1199"/>
      <point x="95" y="1200" type="curve"/>
    </contour>
  </outline>
</glyph>
<glyph name="quotedblleft" format="1">
  <advance width="932"/>
  <unicode hex="201C"/>
  <outline>
    <contour>
      <point x="108" y="1060" type="curve"/>
      <point x="391" y="1060" type="line"/>
      <point x="391" y="1306" type="line"/>
      <point x="248" y="1306" type="line"/>
      <point x="251" y="1366"/>
      <point x="321" y="1379"/>
      <point x="409" y="1378" type="curve"/>
      <point x="295" y="1518" type="line"/>
      <point x="59" y="1519"/>
      <point x="108" y="1224"/>
    </contour>
    <contour>
      <point x="523" y="1060" type="curve"/>
      <point x="809" y="1060" type="line"/>
      <point x="809" y="1306" type="line"/>
      <point x="704" y="1306" type="line"/>
      <point x="707" y="1365"/>
      <point x="770" y="1379"/>
      <point x="819" y="1378" type="curve"/>
      <point x="751" y="1518" type="line"/>
      <point x="435" y="1519"/>
      <point x="523" y="1224"/>
    </contour>
  </outline>
</glyph>
<glyph name="quotedblright" format="1">
  <advance width="933"/>
  <unicode hex="201D"/>
  <outline>
    <contour>
      <point x="168" y="1060" type="line"/>
      <point x="484" y="1059"/>
      <point x="396" y="1355"/>
      <point x="396" y="1518" type="curve"/>
      <point x="108" y="1518" type="line"/>
      <point x="108" y="1272" type="line"/>
      <point x="214" y="1272" type="line"/>
      <point x="212" y="1212"/>
      <point x="145" y="1199"/>
      <point x="98" y="1200" type="curve"/>
    </contour>
    <contour>
      <point x="623" y="1060" type="line"/>
      <point x="859" y="1059"/>
      <point x="810" y="1354"/>
      <point x="810" y="1518" type="curve"/>
      <point x="527" y="1518" type="line"/>
      <point x="527" y="1272" type="line"/>
      <point x="670" y="1272" type="line"/>
      <point x="667" y="1212"/>
      <point x="596" y="1199"/>
      <point x="508" y="1200" type="curve"/>
    </contour>
  </outline>
</glyph>
<glyph name="uniFB01" format="1">
  <advance width="1180"/>
  <unicode hex="FB01"/>
  <outline>
    <contour>
      <point x="117" y="0" type="line"/>
      <point x="396" y="0" type="line"/>
      <point x="396" y="894" type="line"/>
      <point x="823" y="894" type="line"/>
      <point x="823" y="0" type="line"/>
      <point x="1102" y="0" type="line"/>
      <point x="1102" y="1080" type="line"/>
      <point x="396" y="1080" type="line"/>
      <point x="396" y="1130" type="line" smooth="yes"/>
      <point x="396" y="1201"/>
      <point x="433" y="1221"/>
      <point x="512" y="1221" type="curve" smooth="yes"/>
      <point x="540" y="1221"/>
      <point x="643" y="1216"/>
      <point x="643" y="1216" type="curve"/>
      <point x="643" y="1424" type="line"/>
      <point x="643" y="1424"/>
      <point x="468" y="1436"/>
      <point x="357" y="1436" type="curve" smooth="yes"/>
      <point x="154" y="1436"/>
      <point x="123" y="1272"/>
      <point x="118" y="1104" type="curve"/>
      <point x="118" y="1096"/>
      <point x="117" y="1088"/>
      <point x="117" y="1080" type="curve"/>
      <point x="54" y="1080" type="line"/>
      <point x="54" y="894" type="line"/>
      <point x="117" y="894" type="line"/>
    </contour>
    <contour>
      <point x="823" y="1174" type="line"/>
      <point x="1102" y="1174" type="line"/>
      <point x="1102" y="1435" type="line"/>
      <point x="823" y="1435" type="line"/>
    </contour>
  </outline>
</glyph>
<glyph name="uniFB03" format="1">
  <advance width="1914"/>
  <outline>
    <contour>
      <point x="117" y="0" type="line"/>
      <point x="396" y="0" type="line"/>
      <point x="396" y="894" type="line"/>
      <point x="816" y="894" type="line"/>
      <point x="816" y="0" type="line"/>
      <point x="1094" y="0" type="line"/>
      <point x="1094" y="894" type="line"/>
      <point x="1556" y="894" type="line"/>
      <point x="1556" y="0" type="line"/>
      <point x="1835" y="0" type="line"/>
      <point x="1835" y="1080" type="line"/>
      <point x="1094" y="1080" type="line"/>
      <point x="1094" y="1130" type="line" smooth="yes"/>
      <point x="1094" y="1201"/>
      <point x="1132" y="1221"/>
      <point x="1211" y="1221" type="curve" smooth="yes"/>
      <point x="1239" y="1221"/>
      <point x="1342" y="1216"/>
      <point x="1342" y="1216" type="curve"/>
      <point x="1342" y="1424" type="line"/>
      <point x="1342" y="1424"/>
      <point x="1167" y="1436"/>
      <point x="1056" y="1436" type="curve" smooth="yes"/>
      <point x="853" y="1436"/>
      <point x="821" y="1272"/>
      <point x="816" y="1104" type="curve"/>
      <point x="816" y="1080" type="line"/>
      <point x="396" y="1080" type="line"/>
      <point x="396" y="1130" type="line" smooth="yes"/>
      <point x="396" y="1201"/>
      <point x="433" y="1221"/>
      <point x="512" y="1221" type="curve" smooth="yes"/>
      <point x="540" y="1221"/>
      <point x="643" y="1216"/>
      <point x="643" y="1216" type="curve"/>
      <point x="643" y="1424" type="line"/>
      <point x="643" y="1424"/>
      <point x="468" y="1436"/>
      <point x="357" y="1436" type="curve" smooth="yes"/>
      <point x="154" y="1436"/>
      <point x="123" y="1272"/>
      <point x="118" y="1104" type="curve"/>
      <point x="118" y="1096"/>
      <point x="117" y="1088"/>
      <point x="117" y="1080" type="curve"/>
      <point x="54" y="1080" type="line"/>
      <point x="54" y="894" type="line"/>
      <point x="117" y="894" type="line"/>
    </contour>
    <contour>
      <point x="1556" y="1174" type="line"/>
      <point x="1835" y="1174" type="line"/>
      <point x="1835" y="1435" type="line"/>
      <point x="1556" y="1435" type="line"/>
    </contour>
  </outline>
</glyph>
